<?xml version="1.0" encoding="utf-8"?>
<svg viewBox="103.628 93.603 223.45 89.997" xmlns="http://www.w3.org/2000/svg">
  <g id="SvgjsG2487" featurekey="ZxbabI-0" transform="matrix(0.001725, 0, 0, 0.001725, 93.820587, 93.633125)" fill="#ff5722">
    <g xmlns="http://www.w3.org/2000/svg">
      <path class="fil0" d="M35397.32 5555.91c-1006.25,-755.74 -1118.55,-2244.81 -223.31,-3140.01 809.1,-809.1 2137.14,-809.13 2946.23,0 809.13,809.09 809.1,2137.13 0,2946.23 -600.94,600.97 -1513.35,776.3 -2291.99,443.05l-6685.54 11579.72 3511.66 6082.38 5376.32 0c56.86,-475.36 273.75,-901.56 595.32,-1223.11 809.11,-809.11 2137.12,-809.11 2946.23,0 809.13,809.09 809.1,2137.13 0,2946.23 -809.1,809.1 -2137.14,809.13 -2946.23,0 -321.56,-321.56 -538.46,-747.76 -595.32,-1223.12l-5367.51 0 -955.12 1654.33c-162.92,283.52 -594.57,35.49 -431.64,-248.04l951.85 -1648.66 -3502.28 -6066.14 -7006.5 0c-1167.67,2022.46 -2335.18,4043.67 -3502.85,6066.14 1167.67,2022.46 2335.18,4043.67 3502.85,6066.13l1984.1 0c328.84,0 328.84,500 0,500l-1981.59 0 -8171.26 14153.04c1006.25,755.74 1118.55,2244.84 223.31,3140.03 -809.11,809.11 -2137.12,809.11 -2946.23,0 -809.13,-809.09 -809.1,-2137.13 0,-2946.23 600.96,-600.96 1513.32,-776.29 2291.99,-443.07l8169.86 -14150.62c-1175.78,-2036.5 -2350.97,-4072.96 -3526.74,-6109.46l-7925.86 -1.27c-51.2,487.35 -270.4,924.68 -598.68,1252.94 -809.1,809.1 -2137.14,809.13 -2946.23,0 -809.11,-809.11 -809.11,-2137.12 0,-2946.23 809.09,-809.13 2137.13,-809.1 2946.23,0 315.57,315.57 530.34,731.91 591.98,1196.59l7978.97 -2.03c1163.76,-2015.71 2326.94,-4031.38 3490.71,-6047.08l-5664.08 -9810.48c-783.83,349.25 -1711.21,178.03 -2320.04,-430.8 -809.12,-809.07 -809.12,-2137.15 0,-2946.22 809.11,-809.11 2137.12,-809.11 2946.23,0 886.07,886.02 786.85,2358.19 -198.93,3121.4l5679.52 9837.22 6943.35 0c2234.48,-3870.25 4476.92,-7732.94 6711.22,-11602.86zm-14964.17 16278.6c98.53,-170.12 357.51,-20.11 258.98,150l-1023.35 1762.56 1003.49 1622.33c100.84,168.57 -145.79,332.1 -246.64,163.52l-1104.42 -1783.87 1111.94 -1914.54zm6242.92 -13509.71c809.13,809.09 809.1,2137.13 0,2946.23 -322.46,322.47 -750.16,539.69 -1227.13,595.8l0 3971.26c0,328.84 -500,328.84 -500,0l0 -3972.23c-473.74,-57.6 -898.45,-274.18 -1219.1,-594.83 -809.1,-809.1 -809.13,-2137.14 0,-2946.23 809.1,-809.1 2137.14,-809.13 2946.23,0zm-353.52 353.52c-614.88,-614.9 -1624.3,-614.89 -2239.19,0 -614.9,614.88 -614.89,1624.3 0,2239.19 614.89,614.89 1624.31,614.9 2239.19,0 614.89,-614.89 614.9,-1624.31 0,-2239.19zm3088.8 11885.79c97.75,170.12 -161.24,318.93 -258.98,148.82l-1100.75 -1906.56 -2202.93 0c-197.31,0 -197.31,-300 0,-300l2374.62 0 1188.04 2057.74zm14296.48 -9097.12c809.13,809.09 809.1,2137.13 0,2946.23 -822.51,822.51 -2175.19,806.64 -2979.08,-33.62l-8146.62 5471.25c-271.97,182.17 -549.32,-231.89 -277.34,-414.06l8124.55 -5456.43c-469.16,-812.47 -333.03,-1848.11 332.26,-2513.37 809.11,-809.11 2137.12,-809.11 2946.23,0zm-353.52 353.52c-614.89,-614.89 -1624.3,-614.89 -2239.19,0 -614.9,614.88 -614.89,1624.3 0,2239.19 614.88,614.9 1624.3,614.89 2239.19,0 614.89,-614.89 614.9,-1624.31 0,-2239.19zm-28797.72 18164.67l3346.5 -2240.93c271.97,-182.17 549.32,231.89 277.34,414.06l-3345.63 2240.34c408.87,800.21 254.16,1782.29 -383.23,2419.68 -809.1,809.1 -2137.14,809.13 -2946.23,0 -809.11,-809.11 -809.11,-2137.12 0,-2946.23 847.61,-847.65 2267.2,-795.73 3051.25,113.08zm-458.54 240.44c-612.02,-612.02 -1627.23,-611.98 -2239.19,0 -614.89,614.89 -614.89,1624.3 0,2239.19 614.88,614.9 1624.3,614.89 2239.19,0 471.49,-471.49 581.44,-1174.96 329.87,-1754.64 -76.51,-176.29 -186.47,-341.16 -329.87,-484.55zm-2916.71 14765.78c-614.89,614.89 -614.9,1624.31 0,2239.19 614.89,614.89 1624.3,614.89 2239.19,0 664.72,-664.7 602.07,-1775.77 -133.4,-2357.98 -617.74,-488.91 -1540.11,-446.89 -2105.79,118.79zm-2296.47 -22397.71c-614.89,-614.89 -1624.31,-614.9 -2239.19,0 -614.89,614.89 -614.89,1624.3 0,2239.19 614.88,614.9 1624.3,614.89 2239.19,0 614.9,-614.88 614.89,-1624.3 0,-2239.19zm7023.77 -18040.02c-614.89,-614.89 -1624.3,-614.89 -2239.19,0 -614.9,614.87 -614.9,1624.31 0,2239.18 474.89,474.89 1185.1,583.01 1767.14,324.38 999.83,-444.24 1258.13,-1777.51 472.05,-2563.56zm25310.08 18044.02c-614.89,-614.89 -1624.3,-614.89 -2239.19,0 -614.9,614.88 -614.89,1624.3 0,2239.19 614.88,614.9 1624.3,614.89 2239.19,0 614.89,-614.89 614.9,-1624.31 0,-2239.19zm-3452 -19828.27c-614.88,-614.9 -1624.3,-614.89 -2239.19,0 -657.56,657.54 -575.44,1771.08 139.43,2361.81 119.85,99.03 251.45,167.74 389.68,225.93 576.58,242.71 1242.88,118.66 1710.08,-348.55 614.89,-614.89 614.9,-1624.31 0,-2239.19zm5315.54 38507.52l1105.89 1467.63c197.82,262.06 -200.64,562.82 -398.44,300.78l-1130.29 -1500.01c-241.42,-265 -745.89,-21.15 -1072,74.26 -1322.3,474.61 -4099.76,1932.43 -6149.32,3997.36 -312.43,314.78 -431.93,540.92 -327.53,700.62l1089.82 1477.09c197.57,260.44 -198.93,561.2 -396.48,300.78l-1153.47 -1530.44c-278.51,-369.54 102.06,-898.55 349.01,-1198.01 -877.01,-1117.9 -1969.18,-1511.7 -3154.53,-1939.07 -2674.55,-964.32 -4176.19,-2211.41 -5801,-4521.35 -952.49,-1354.12 -1666.2,-3769.06 -1649.94,-5458.2 16.87,-1748.7 1549.7,-1670.91 2365.38,-727.64 357.31,413.19 617.68,1050.6 785.88,1979.54 57.14,315.59 151.55,604.16 258.29,863.86 206.2,501.71 242.89,498.16 113.26,-34.47 -94.61,-388.74 -157.48,-791.25 -231.75,-1183.21 -493.09,-2602.54 -1318.06,-5401.71 -2156.42,-7926.25 -901.73,-2715.22 2064.29,-3872.23 3065,-809.28 303.96,930.28 732.18,2014.8 1080.88,2928.83 889.62,-260.36 1746.3,-29.88 2434.04,577.32 954.24,-536.06 2284.42,146.12 2907.81,926.62 3162.29,-781.52 3996.77,4118.85 4478.89,5699.38 561.26,1993.68 1144.85,4066.4 2132.07,5339.23 501.32,-151.64 1087.68,-292.79 1454.95,194.63zm-7742.02 3717.25c1401.61,-1408 3961.2,-3020.07 5793.03,-3738.69 -985.64,-1353.99 -1562.77,-3403.63 -2118.49,-5377.66 -847.29,-3009.67 -1642.59,-5833.88 -3700.29,-5401.26 300.95,494.05 545.16,1049.16 685.5,1610.35 79.65,318.56 -404.73,439.67 -484.38,121.1 -148.33,-593.19 -450.25,-1252.42 -808.63,-1746.68 -457.17,-630.45 -1439.82,-1248.39 -2236.54,-964.1 561.83,709.13 963.1,1724.68 1188.99,2592.41 82.2,317.31 -400.23,442.26 -482.42,125 -209.02,-802.92 -658.89,-1972.65 -1241.25,-2573.55 -564.42,-582.43 -1288.2,-850.56 -2083.9,-632.24 397.14,1053.25 807.46,2147.3 1097.29,3185.38 87.35,316.02 -393.13,448.79 -480.46,132.82 -612.05,-2192.2 -1646.98,-4411.25 -2349.67,-6561.84 -781.27,-2391.24 -2819.42,-1614.15 -2117.74,498.72 846.75,2549.75 1675.85,5361.51 2174,7990.71 220.89,1165.74 454.87,2400.52 816.06,3246.61 128.46,301.88 -330.54,497.17 -458.98,195.32 -46.78,-109.57 -91.41,-224.67 -134.13,-344.47 -152.73,-428.24 -118.53,-276.15 -411.77,-586.66 -159.14,-168.53 -312.75,-377.28 -449.54,-619.47 -212.67,-376.56 -387.8,-837.97 -481.92,-1357.81 -151.35,-835.86 -373.92,-1395.87 -672.6,-1741.26 -525.39,-607.59 -1478.74,-803.83 -1490.38,405.36 -15.23,1582.06 668.32,3899.39 1560.1,5167.2 1563.4,2222.65 2987.8,3412 5560.76,4339.69 1235.08,445.3 2374.75,856.3 3327.36,2035.02z" style="fill-rule: nonzero; stroke-linecap: square; fill: rgb(57, 181, 74); stroke: rgb(57, 181, 74); stroke-width: 579.71px;"/>
    </g>
  </g>
  <line style="fill-rule: nonzero; paint-order: stroke; fill: rgb(57, 181, 74); stroke-width: 1.6px; stroke: rgb(255, 255, 255);" x1="181.887" y1="93.603" x2="181.167" y2="183.6"/>
  <path d="M 211.64 118.431 C 211.32 118.658 211.063 119.024 210.87 119.531 C 210.67 120.031 210.57 120.578 210.57 121.171 L 210.57 131.231 C 210.57 133.011 210.49 134.478 210.33 135.631 C 210.177 136.791 209.953 137.738 209.66 138.471 C 209.367 139.211 209.017 139.834 208.61 140.341 C 207.863 141.294 206.867 141.994 205.62 142.441 C 204.373 142.894 202.99 143.121 201.47 143.121 C 200.277 143.121 199.03 143.004 197.73 142.771 C 196.437 142.538 195.293 142.234 194.3 141.861 C 194.3 141.168 194.44 140.401 194.72 139.561 C 195 138.721 195.35 138.054 195.77 137.561 C 196.583 137.914 197.433 138.194 198.32 138.401 C 199.213 138.601 200.077 138.701 200.91 138.701 C 201.837 138.701 202.583 138.541 203.15 138.221 C 203.717 137.908 204.127 137.461 204.38 136.881 C 204.633 136.301 204.76 135.618 204.76 134.831 L 204.76 121.101 C 204.76 119.528 205.187 118.188 206.04 117.081 C 206.887 115.974 208.15 115.408 209.83 115.381 C 210.197 115.674 210.57 116.124 210.95 116.731 C 211.33 117.331 211.56 117.898 211.64 118.431 Z M 193.58 125.231 C 193.58 123.051 193.927 121.208 194.62 119.701 C 195.313 118.194 196.24 117.054 197.4 116.281 C 198.56 115.508 199.833 115.121 201.22 115.121 C 202.453 115.121 203.507 115.324 204.38 115.731 C 205.26 116.138 205.983 116.634 206.55 117.221 C 207.123 117.814 207.573 118.384 207.9 118.931 L 206.93 123.781 C 206.197 122.414 205.407 121.364 204.56 120.631 C 203.713 119.904 202.95 119.541 202.27 119.541 C 201.643 119.541 201.14 119.771 200.76 120.231 C 200.38 120.698 200.103 121.358 199.93 122.211 C 199.763 123.071 199.68 124.091 199.68 125.271 C 199.68 127.038 199.89 128.318 200.31 129.111 C 200.737 129.904 201.273 130.301 201.92 130.301 C 202.687 130.301 203.433 130.041 204.16 129.521 C 204.893 129.001 205.507 128.224 206 127.191 L 206.84 131.331 C 206.42 132.051 205.88 132.694 205.22 133.261 C 204.56 133.828 203.82 134.274 203 134.601 C 202.18 134.921 201.327 135.081 200.44 135.081 C 198.887 135.081 197.603 134.661 196.59 133.821 C 195.577 132.988 194.82 131.831 194.32 130.351 C 193.827 128.871 193.58 127.164 193.58 125.231 ZM 231.113 125.191 C 231.113 127.224 230.776 128.998 230.103 130.511 C 229.429 132.024 228.436 133.194 227.123 134.021 C 225.816 134.854 224.209 135.271 222.303 135.271 C 220.376 135.271 218.759 134.851 217.453 134.011 C 216.139 133.178 215.153 132.004 214.493 130.491 C 213.833 128.978 213.503 127.211 213.503 125.191 C 213.503 123.151 213.836 121.378 214.503 119.871 C 215.169 118.364 216.159 117.194 217.473 116.361 C 218.779 115.534 220.389 115.121 222.303 115.121 C 224.236 115.121 225.853 115.538 227.153 116.371 C 228.453 117.211 229.439 118.384 230.113 119.891 C 230.779 121.398 231.113 123.164 231.113 125.191 Z M 219.623 125.191 C 219.623 126.238 219.683 127.184 219.803 128.031 C 219.923 128.884 220.173 129.561 220.553 130.061 C 220.933 130.561 221.516 130.811 222.303 130.811 C 223.083 130.811 223.666 130.561 224.053 130.061 C 224.439 129.561 224.693 128.884 224.813 128.031 C 224.933 127.184 224.993 126.238 224.993 125.191 C 224.993 124.138 224.933 123.188 224.813 122.341 C 224.693 121.488 224.439 120.811 224.053 120.311 C 223.666 119.811 223.083 119.561 222.303 119.561 C 221.516 119.561 220.933 119.811 220.553 120.311 C 220.173 120.811 219.923 121.488 219.803 122.341 C 219.683 123.188 219.623 124.138 219.623 125.191 ZM 248.866 119.041 C 248.892 117.988 248.786 116.994 248.546 116.061 C 248.312 115.128 247.889 114.371 247.276 113.791 C 246.656 113.218 245.789 112.931 244.676 112.931 C 243.036 112.931 241.869 113.688 241.176 115.201 C 240.482 116.721 240.136 118.928 240.136 121.821 C 240.136 124.528 240.589 126.561 241.496 127.921 C 242.409 129.281 243.696 129.961 245.356 129.961 C 246.676 129.961 247.866 129.681 248.926 129.121 C 249.986 128.561 250.956 127.951 251.836 127.291 C 252.429 127.698 253.009 128.274 253.576 129.021 C 254.142 129.774 254.496 130.504 254.636 131.211 C 253.896 131.938 252.986 132.608 251.906 133.221 C 250.819 133.841 249.619 134.338 248.306 134.711 C 246.999 135.084 245.642 135.271 244.236 135.271 C 242.242 135.271 240.569 134.881 239.216 134.101 C 237.862 133.321 236.786 132.281 235.986 130.981 C 235.186 129.674 234.612 128.224 234.266 126.631 C 233.912 125.038 233.736 123.421 233.736 121.781 C 233.736 118.594 234.242 115.991 235.256 113.971 C 236.262 111.951 237.609 110.468 239.296 109.521 C 240.989 108.568 242.852 108.091 244.886 108.091 C 246.852 108.091 248.569 108.438 250.036 109.131 C 251.502 109.831 252.639 110.778 253.446 111.971 C 254.252 113.164 254.656 114.511 254.656 116.011 C 254.656 117.191 254.346 118.044 253.726 118.571 C 253.112 119.098 252.259 119.361 251.166 119.361 C 250.726 119.361 250.322 119.331 249.956 119.271 C 249.596 119.204 249.232 119.128 248.866 119.041 ZM 263.469 110.241 L 263.469 134.701 C 262.629 134.854 261.642 134.931 260.509 134.931 C 259.496 134.931 258.539 134.854 257.639 134.701 L 257.639 106.931 L 257.899 106.661 L 260.229 106.661 C 261.396 106.661 262.226 106.928 262.719 107.461 C 263.219 107.994 263.469 108.921 263.469 110.241 Z M 273.889 122.131 L 273.889 129.941 C 273.889 130.688 273.959 131.381 274.099 132.021 C 274.239 132.668 274.479 133.238 274.819 133.731 C 274.386 134.098 273.846 134.401 273.199 134.641 C 272.552 134.881 271.856 135.001 271.109 135.001 C 269.909 135.001 269.079 134.684 268.619 134.051 C 268.152 133.418 267.919 132.504 267.919 131.311 L 267.919 123.211 C 267.919 122.351 267.806 121.714 267.579 121.301 C 267.352 120.888 266.922 120.681 266.289 120.681 C 265.896 120.681 265.439 120.788 264.919 121.001 C 264.406 121.221 263.892 121.568 263.379 122.041 C 262.866 122.521 262.419 123.161 262.039 123.961 L 262.039 118.761 C 262.926 117.881 263.892 117.091 264.939 116.391 C 265.986 115.698 267.189 115.351 268.549 115.351 C 269.709 115.351 270.686 115.638 271.479 116.211 C 272.272 116.791 272.872 117.591 273.279 118.611 C 273.686 119.638 273.889 120.811 273.889 122.131 ZM 293.482 127.121 L 281.322 127.121 L 281.322 123.021 L 288.502 123.021 L 288.502 122.581 C 288.502 122.001 288.422 121.464 288.262 120.971 C 288.095 120.484 287.828 120.091 287.462 119.791 C 287.088 119.498 286.605 119.351 286.012 119.351 C 285.085 119.351 284.435 119.731 284.062 120.491 C 283.682 121.251 283.492 122.424 283.492 124.011 L 283.492 125.801 C 283.492 126.681 283.568 127.491 283.722 128.231 C 283.875 128.978 284.198 129.578 284.692 130.031 C 285.192 130.491 285.948 130.721 286.962 130.721 C 287.828 130.721 288.675 130.611 289.502 130.391 C 290.335 130.164 291.135 129.894 291.902 129.581 C 292.342 130.021 292.695 130.571 292.962 131.231 C 293.228 131.891 293.408 132.514 293.502 133.101 C 292.535 133.801 291.382 134.338 290.042 134.711 C 288.702 135.084 287.352 135.271 285.992 135.271 C 284.325 135.271 282.945 134.991 281.852 134.431 C 280.752 133.878 279.885 133.131 279.252 132.191 C 278.612 131.251 278.162 130.184 277.902 128.991 C 277.642 127.804 277.512 126.584 277.512 125.331 C 277.512 123.411 277.802 121.681 278.382 120.141 C 278.962 118.594 279.878 117.371 281.132 116.471 C 282.392 115.571 284.032 115.121 286.052 115.121 C 287.712 115.121 289.135 115.474 290.322 116.181 C 291.515 116.894 292.425 117.861 293.052 119.081 C 293.678 120.301 293.992 121.671 293.992 123.191 C 293.992 124.044 293.955 124.754 293.882 125.321 C 293.802 125.888 293.668 126.488 293.482 127.121 ZM 297.904 115.421 L 300.134 115.421 C 301.268 115.421 302.128 115.808 302.714 116.581 C 303.308 117.361 303.604 118.418 303.604 119.751 L 303.604 134.701 C 303.184 134.774 302.711 134.831 302.184 134.871 C 301.658 134.911 301.141 134.931 300.634 134.931 C 300.134 134.931 299.618 134.911 299.084 134.871 C 298.551 134.831 298.071 134.774 297.644 134.701 L 297.644 115.691 L 297.904 115.421 Z M 307.834 134.701 L 307.834 123.231 C 307.834 122.218 307.651 121.538 307.284 121.191 C 306.911 120.851 306.521 120.681 306.114 120.681 C 305.574 120.694 305.001 120.911 304.394 121.331 C 303.794 121.751 303.244 122.264 302.744 122.871 C 302.251 123.478 301.898 124.074 301.684 124.661 L 301.684 119.521 C 302.278 118.848 302.934 118.191 303.654 117.551 C 304.368 116.904 305.138 116.374 305.964 115.961 C 306.791 115.554 307.661 115.351 308.574 115.351 C 309.681 115.351 310.624 115.608 311.404 116.121 C 312.184 116.634 312.778 117.344 313.184 118.251 C 313.591 119.158 313.794 120.191 313.794 121.351 L 313.794 134.701 C 313.374 134.774 312.901 134.831 312.374 134.871 C 311.848 134.911 311.331 134.931 310.824 134.931 C 310.331 134.931 309.818 134.911 309.284 134.871 C 308.751 134.831 308.268 134.774 307.834 134.701 Z M 318.024 131.311 L 318.024 123.191 C 318.024 122.178 317.831 121.504 317.444 121.171 C 317.058 120.844 316.661 120.681 316.254 120.681 C 315.748 120.681 315.198 120.894 314.604 121.321 C 314.018 121.748 313.461 122.284 312.934 122.931 C 312.414 123.578 312.008 124.224 311.714 124.871 L 311.714 119.361 C 312.274 118.681 312.944 118.031 313.724 117.411 C 314.511 116.798 315.348 116.301 316.234 115.921 C 317.121 115.541 318.018 115.351 318.924 115.351 C 320.038 115.351 320.971 115.614 321.724 116.141 C 322.471 116.668 323.034 117.388 323.414 118.301 C 323.794 119.214 323.984 120.254 323.984 121.421 L 323.984 129.941 C 323.984 130.688 324.054 131.381 324.194 132.021 C 324.334 132.668 324.584 133.238 324.944 133.731 C 324.498 134.098 323.954 134.401 323.314 134.641 C 322.668 134.881 321.971 135.001 321.224 135.001 C 320.031 135.001 319.201 134.684 318.734 134.051 C 318.261 133.418 318.024 132.504 318.024 131.311 Z" transform="matrix(1, 0, 0, 1, 0, 0)" style="fill: rgb(57, 181, 74); white-space: pre;"/>
  <path d="M 199.936 162.75 C 198.089 162.75 196.703 162.237 195.776 161.21 C 194.843 160.177 194.376 158.64 194.376 156.6 C 194.376 154.56 194.843 153.023 195.776 151.99 C 196.703 150.957 198.089 150.44 199.936 150.44 C 200.576 150.44 201.199 150.52 201.806 150.68 C 202.419 150.833 203.016 151.047 203.596 151.32 L 203.596 152.57 C 203.043 152.27 202.473 152.043 201.886 151.89 C 201.293 151.743 200.693 151.67 200.086 151.67 C 199.073 151.67 198.246 151.843 197.606 152.19 C 196.966 152.537 196.493 153.073 196.186 153.8 C 195.879 154.527 195.726 155.46 195.726 156.6 C 195.726 157.74 195.879 158.673 196.186 159.4 C 196.493 160.127 196.966 160.663 197.606 161.01 C 198.246 161.357 199.073 161.53 200.086 161.53 C 200.693 161.53 201.293 161.457 201.886 161.31 C 202.473 161.17 203.043 160.95 203.596 160.65 L 203.596 161.89 C 203.209 162.07 202.816 162.227 202.416 162.36 C 202.009 162.493 201.599 162.593 201.186 162.66 C 200.773 162.72 200.356 162.75 199.936 162.75 ZM 212.04 162.79 C 210.854 162.79 209.86 162.56 209.06 162.1 C 208.267 161.633 207.667 160.947 207.26 160.04 C 206.86 159.127 206.66 157.987 206.66 156.62 C 206.66 154.58 207.114 153.04 208.02 152 C 208.927 150.96 210.267 150.44 212.04 150.44 C 213.24 150.44 214.24 150.67 215.04 151.13 C 215.84 151.597 216.44 152.287 216.84 153.2 C 217.24 154.107 217.44 155.247 217.44 156.62 C 217.44 158.66 216.987 160.197 216.08 161.23 C 215.174 162.27 213.827 162.79 212.04 162.79 Z M 212.04 161.57 C 212.987 161.57 213.76 161.393 214.36 161.04 C 214.96 160.693 215.404 160.153 215.69 159.42 C 215.97 158.693 216.11 157.76 216.11 156.62 C 216.11 155.48 215.97 154.547 215.69 153.82 C 215.404 153.093 214.96 152.553 214.36 152.2 C 213.76 151.847 212.987 151.67 212.04 151.67 C 211.107 151.67 210.34 151.847 209.74 152.2 C 209.14 152.553 208.7 153.093 208.42 153.82 C 208.134 154.547 207.99 155.48 207.99 156.62 C 207.99 157.76 208.134 158.693 208.42 159.42 C 208.7 160.153 209.14 160.693 209.74 161.04 C 210.34 161.393 211.107 161.57 212.04 161.57 ZM 222.351 162.61 L 221.051 162.61 L 221.051 150.6 L 222.531 150.6 L 230.011 161.17 L 229.691 161.67 L 229.691 150.6 L 230.991 150.6 L 230.991 162.61 L 229.531 162.61 L 221.751 151.65 L 222.351 151.09 L 222.351 162.61 ZM 238.445 162.79 C 237.845 162.79 237.335 162.747 236.915 162.66 C 236.495 162.58 236.118 162.46 235.785 162.3 C 235.445 162.147 235.078 161.967 234.685 161.76 L 234.685 160.36 C 235.071 160.687 235.588 160.973 236.235 161.22 C 236.881 161.473 237.638 161.6 238.505 161.6 C 239.411 161.6 240.075 161.407 240.495 161.02 C 240.908 160.627 241.115 160.13 241.115 159.53 C 241.115 159.03 240.975 158.627 240.695 158.32 C 240.421 158.013 240.068 157.76 239.635 157.56 C 239.201 157.36 238.745 157.17 238.265 156.99 C 237.858 156.85 237.455 156.697 237.055 156.53 C 236.648 156.37 236.285 156.167 235.965 155.92 C 235.638 155.673 235.378 155.357 235.185 154.97 C 234.998 154.577 234.905 154.087 234.905 153.5 C 234.905 153.18 234.968 152.84 235.095 152.48 C 235.215 152.12 235.418 151.783 235.705 151.47 C 235.985 151.157 236.361 150.903 236.835 150.71 C 237.308 150.517 237.888 150.42 238.575 150.42 C 239.041 150.42 239.441 150.453 239.775 150.52 C 240.101 150.587 240.415 150.683 240.715 150.81 C 241.015 150.937 241.351 151.09 241.725 151.27 L 241.725 152.6 C 241.411 152.42 241.115 152.257 240.835 152.11 C 240.548 151.957 240.235 151.837 239.895 151.75 C 239.555 151.657 239.138 151.61 238.645 151.61 C 238.058 151.61 237.588 151.693 237.235 151.86 C 236.881 152.033 236.621 152.257 236.455 152.53 C 236.295 152.803 236.215 153.097 236.215 153.41 C 236.215 153.903 236.325 154.293 236.545 154.58 C 236.771 154.867 237.085 155.103 237.485 155.29 C 237.885 155.477 238.348 155.66 238.875 155.84 C 239.295 155.987 239.715 156.147 240.135 156.32 C 240.555 156.493 240.938 156.71 241.285 156.97 C 241.625 157.223 241.901 157.547 242.115 157.94 C 242.321 158.327 242.425 158.81 242.425 159.39 C 242.425 159.93 242.305 160.46 242.065 160.98 C 241.825 161.5 241.418 161.933 240.845 162.28 C 240.265 162.62 239.465 162.79 238.445 162.79 ZM 250.733 162.79 C 249.247 162.79 248.09 162.353 247.263 161.48 C 246.443 160.6 246.033 159.343 246.033 157.71 L 246.033 150.6 L 247.333 150.6 L 247.333 157.79 C 247.333 159.07 247.62 160.02 248.193 160.64 C 248.767 161.26 249.613 161.57 250.733 161.57 C 251.847 161.57 252.697 161.26 253.283 160.64 C 253.877 160.02 254.173 159.07 254.173 157.79 L 254.173 150.6 L 255.433 150.6 L 255.433 157.71 C 255.433 158.803 255.247 159.73 254.873 160.49 C 254.5 161.243 253.967 161.813 253.273 162.2 C 252.573 162.593 251.727 162.79 250.733 162.79 ZM 266.917 162.61 L 259.487 162.61 L 259.487 150.6 L 260.787 150.6 L 260.787 161.35 L 266.917 161.35 L 266.917 162.61 ZM 272.83 162.61 L 271.54 162.61 L 271.54 151.83 L 267.29 151.83 L 267.29 150.6 L 277.06 150.6 L 277.06 151.83 L 272.83 151.83 L 272.83 162.61 ZM 281.253 162.61 L 279.953 162.61 L 279.953 150.6 L 281.253 150.6 L 281.253 162.61 ZM 286.608 162.61 L 285.308 162.61 L 285.308 150.6 L 286.788 150.6 L 294.268 161.17 L 293.948 161.67 L 293.948 150.6 L 295.248 150.6 L 295.248 162.61 L 293.788 162.61 L 286.008 151.65 L 286.608 151.09 L 286.608 162.61 ZM 304.412 162.79 C 303.192 162.79 302.166 162.56 301.332 162.1 C 300.506 161.633 299.886 160.943 299.472 160.03 C 299.059 159.11 298.852 157.967 298.852 156.6 C 298.852 155.233 299.059 154.093 299.472 153.18 C 299.886 152.267 300.506 151.583 301.332 151.13 C 302.166 150.67 303.192 150.44 304.412 150.44 C 305.072 150.44 305.722 150.507 306.362 150.64 C 306.996 150.773 307.606 150.977 308.192 151.25 L 308.192 152.6 C 307.632 152.347 307.046 152.127 306.432 151.94 C 305.819 151.76 305.196 151.67 304.562 151.67 C 303.549 151.67 302.716 151.847 302.062 152.2 C 301.409 152.553 300.926 153.093 300.612 153.82 C 300.306 154.547 300.152 155.473 300.152 156.6 C 300.152 157.727 300.306 158.657 300.612 159.39 C 300.926 160.123 301.409 160.667 302.062 161.02 C 302.716 161.373 303.549 161.55 304.562 161.55 C 305.042 161.55 305.509 161.513 305.962 161.44 C 306.416 161.367 306.866 161.26 307.312 161.12 L 307.312 157.7 L 304.412 157.7 L 304.412 156.44 L 308.612 156.44 L 308.612 161.85 C 307.952 162.163 307.272 162.4 306.572 162.56 C 305.879 162.713 305.159 162.79 304.412 162.79 Z" transform="matrix(1.1331230401992798, 0, 0, 1, -25.7427978515625, -2)" style="fill: rgb(57, 181, 74); white-space: pre;"/>
</svg>