<?xml version="1.0" encoding="utf-8"?>
<svg viewBox="132.165 315.489 231.319 89.997" xmlns="http://www.w3.org/2000/svg">
  <g id="g-1" featurekey="ZxbabI-0" transform="matrix(0.001725, 0, 0, 0.001725, 122.357788, 315.518738)" fill="#ff5722">
    <g xmlns="http://www.w3.org/2000/svg">
      <path class="fil0" d="M35397.32 5555.91c-1006.25,-755.74 -1118.55,-2244.81 -223.31,-3140.01 809.1,-809.1 2137.14,-809.13 2946.23,0 809.13,809.09 809.1,2137.13 0,2946.23 -600.94,600.97 -1513.35,776.3 -2291.99,443.05l-6685.54 11579.72 3511.66 6082.38 5376.32 0c56.86,-475.36 273.75,-901.56 595.32,-1223.11 809.11,-809.11 2137.12,-809.11 2946.23,0 809.13,809.09 809.1,2137.13 0,2946.23 -809.1,809.1 -2137.14,809.13 -2946.23,0 -321.56,-321.56 -538.46,-747.76 -595.32,-1223.12l-5367.51 0 -955.12 1654.33c-162.92,283.52 -594.57,35.49 -431.64,-248.04l951.85 -1648.66 -3502.28 -6066.14 -7006.5 0c-1167.67,2022.46 -2335.18,4043.67 -3502.85,6066.14 1167.67,2022.46 2335.18,4043.67 3502.85,6066.13l1984.1 0c328.84,0 328.84,500 0,500l-1981.59 0 -8171.26 14153.04c1006.25,755.74 1118.55,2244.84 223.31,3140.03 -809.11,809.11 -2137.12,809.11 -2946.23,0 -809.13,-809.09 -809.1,-2137.13 0,-2946.23 600.96,-600.96 1513.32,-776.29 2291.99,-443.07l8169.86 -14150.62c-1175.78,-2036.5 -2350.97,-4072.96 -3526.74,-6109.46l-7925.86 -1.27c-51.2,487.35 -270.4,924.68 -598.68,1252.94 -809.1,809.1 -2137.14,809.13 -2946.23,0 -809.11,-809.11 -809.11,-2137.12 0,-2946.23 809.09,-809.13 2137.13,-809.1 2946.23,0 315.57,315.57 530.34,731.91 591.98,1196.59l7978.97 -2.03c1163.76,-2015.71 2326.94,-4031.38 3490.71,-6047.08l-5664.08 -9810.48c-783.83,349.25 -1711.21,178.03 -2320.04,-430.8 -809.12,-809.07 -809.12,-2137.15 0,-2946.22 809.11,-809.11 2137.12,-809.11 2946.23,0 886.07,886.02 786.85,2358.19 -198.93,3121.4l5679.52 9837.22 6943.35 0c2234.48,-3870.25 4476.92,-7732.94 6711.22,-11602.86zm-14964.17 16278.6c98.53,-170.12 357.51,-20.11 258.98,150l-1023.35 1762.56 1003.49 1622.33c100.84,168.57 -145.79,332.1 -246.64,163.52l-1104.42 -1783.87 1111.94 -1914.54zm6242.92 -13509.71c809.13,809.09 809.1,2137.13 0,2946.23 -322.46,322.47 -750.16,539.69 -1227.13,595.8l0 3971.26c0,328.84 -500,328.84 -500,0l0 -3972.23c-473.74,-57.6 -898.45,-274.18 -1219.1,-594.83 -809.1,-809.1 -809.13,-2137.14 0,-2946.23 809.1,-809.1 2137.14,-809.13 2946.23,0zm-353.52 353.52c-614.88,-614.9 -1624.3,-614.89 -2239.19,0 -614.9,614.88 -614.89,1624.3 0,2239.19 614.89,614.89 1624.31,614.9 2239.19,0 614.89,-614.89 614.9,-1624.31 0,-2239.19zm3088.8 11885.79c97.75,170.12 -161.24,318.93 -258.98,148.82l-1100.75 -1906.56 -2202.93 0c-197.31,0 -197.31,-300 0,-300l2374.62 0 1188.04 2057.74zm14296.48 -9097.12c809.13,809.09 809.1,2137.13 0,2946.23 -822.51,822.51 -2175.19,806.64 -2979.08,-33.62l-8146.62 5471.25c-271.97,182.17 -549.32,-231.89 -277.34,-414.06l8124.55 -5456.43c-469.16,-812.47 -333.03,-1848.11 332.26,-2513.37 809.11,-809.11 2137.12,-809.11 2946.23,0zm-353.52 353.52c-614.89,-614.89 -1624.3,-614.89 -2239.19,0 -614.9,614.88 -614.89,1624.3 0,2239.19 614.88,614.9 1624.3,614.89 2239.19,0 614.89,-614.89 614.9,-1624.31 0,-2239.19zm-28797.72 18164.67l3346.5 -2240.93c271.97,-182.17 549.32,231.89 277.34,414.06l-3345.63 2240.34c408.87,800.21 254.16,1782.29 -383.23,2419.68 -809.1,809.1 -2137.14,809.13 -2946.23,0 -809.11,-809.11 -809.11,-2137.12 0,-2946.23 847.61,-847.65 2267.2,-795.73 3051.25,113.08zm-458.54 240.44c-612.02,-612.02 -1627.23,-611.98 -2239.19,0 -614.89,614.89 -614.89,1624.3 0,2239.19 614.88,614.9 1624.3,614.89 2239.19,0 471.49,-471.49 581.44,-1174.96 329.87,-1754.64 -76.51,-176.29 -186.47,-341.16 -329.87,-484.55zm-2916.71 14765.78c-614.89,614.89 -614.9,1624.31 0,2239.19 614.89,614.89 1624.3,614.89 2239.19,0 664.72,-664.7 602.07,-1775.77 -133.4,-2357.98 -617.74,-488.91 -1540.11,-446.89 -2105.79,118.79zm-2296.47 -22397.71c-614.89,-614.89 -1624.31,-614.9 -2239.19,0 -614.89,614.89 -614.89,1624.3 0,2239.19 614.88,614.9 1624.3,614.89 2239.19,0 614.9,-614.88 614.89,-1624.3 0,-2239.19zm7023.77 -18040.02c-614.89,-614.89 -1624.3,-614.89 -2239.19,0 -614.9,614.87 -614.9,1624.31 0,2239.18 474.89,474.89 1185.1,583.01 1767.14,324.38 999.83,-444.24 1258.13,-1777.51 472.05,-2563.56zm25310.08 18044.02c-614.89,-614.89 -1624.3,-614.89 -2239.19,0 -614.9,614.88 -614.89,1624.3 0,2239.19 614.88,614.9 1624.3,614.89 2239.19,0 614.89,-614.89 614.9,-1624.31 0,-2239.19zm-3452 -19828.27c-614.88,-614.9 -1624.3,-614.89 -2239.19,0 -657.56,657.54 -575.44,1771.08 139.43,2361.81 119.85,99.03 251.45,167.74 389.68,225.93 576.58,242.71 1242.88,118.66 1710.08,-348.55 614.89,-614.89 614.9,-1624.31 0,-2239.19zm5315.54 38507.52l1105.89 1467.63c197.82,262.06 -200.64,562.82 -398.44,300.78l-1130.29 -1500.01c-241.42,-265 -745.89,-21.15 -1072,74.26 -1322.3,474.61 -4099.76,1932.43 -6149.32,3997.36 -312.43,314.78 -431.93,540.92 -327.53,700.62l1089.82 1477.09c197.57,260.44 -198.93,561.2 -396.48,300.78l-1153.47 -1530.44c-278.51,-369.54 102.06,-898.55 349.01,-1198.01 -877.01,-1117.9 -1969.18,-1511.7 -3154.53,-1939.07 -2674.55,-964.32 -4176.19,-2211.41 -5801,-4521.35 -952.49,-1354.12 -1666.2,-3769.06 -1649.94,-5458.2 16.87,-1748.7 1549.7,-1670.91 2365.38,-727.64 357.31,413.19 617.68,1050.6 785.88,1979.54 57.14,315.59 151.55,604.16 258.29,863.86 206.2,501.71 242.89,498.16 113.26,-34.47 -94.61,-388.74 -157.48,-791.25 -231.75,-1183.21 -493.09,-2602.54 -1318.06,-5401.71 -2156.42,-7926.25 -901.73,-2715.22 2064.29,-3872.23 3065,-809.28 303.96,930.28 732.18,2014.8 1080.88,2928.83 889.62,-260.36 1746.3,-29.88 2434.04,577.32 954.24,-536.06 2284.42,146.12 2907.81,926.62 3162.29,-781.52 3996.77,4118.85 4478.89,5699.38 561.26,1993.68 1144.85,4066.4 2132.07,5339.23 501.32,-151.64 1087.68,-292.79 1454.95,194.63zm-7742.02 3717.25c1401.61,-1408 3961.2,-3020.07 5793.03,-3738.69 -985.64,-1353.99 -1562.77,-3403.63 -2118.49,-5377.66 -847.29,-3009.67 -1642.59,-5833.88 -3700.29,-5401.26 300.95,494.05 545.16,1049.16 685.5,1610.35 79.65,318.56 -404.73,439.67 -484.38,121.1 -148.33,-593.19 -450.25,-1252.42 -808.63,-1746.68 -457.17,-630.45 -1439.82,-1248.39 -2236.54,-964.1 561.83,709.13 963.1,1724.68 1188.99,2592.41 82.2,317.31 -400.23,442.26 -482.42,125 -209.02,-802.92 -658.89,-1972.65 -1241.25,-2573.55 -564.42,-582.43 -1288.2,-850.56 -2083.9,-632.24 397.14,1053.25 807.46,2147.3 1097.29,3185.38 87.35,316.02 -393.13,448.79 -480.46,132.82 -612.05,-2192.2 -1646.98,-4411.25 -2349.67,-6561.84 -781.27,-2391.24 -2819.42,-1614.15 -2117.74,498.72 846.75,2549.75 1675.85,5361.51 2174,7990.71 220.89,1165.74 454.87,2400.52 816.06,3246.61 128.46,301.88 -330.54,497.17 -458.98,195.32 -46.78,-109.57 -91.41,-224.67 -134.13,-344.47 -152.73,-428.24 -118.53,-276.15 -411.77,-586.66 -159.14,-168.53 -312.75,-377.28 -449.54,-619.47 -212.67,-376.56 -387.8,-837.97 -481.92,-1357.81 -151.35,-835.86 -373.92,-1395.87 -672.6,-1741.26 -525.39,-607.59 -1478.74,-803.83 -1490.38,405.36 -15.23,1582.06 668.32,3899.39 1560.1,5167.2 1563.4,2222.65 2987.8,3412 5560.76,4339.69 1235.08,445.3 2374.75,856.3 3327.36,2035.02z" style="fill-rule: nonzero; stroke-linecap: square; fill: rgb(57, 181, 74); stroke: rgb(57, 181, 74); stroke-width: 579.71px;"/>
    </g>
  </g>
  <line style="fill-rule: nonzero; paint-order: stroke; fill: rgb(57, 181, 74); stroke-width: 1.6px; stroke: rgb(255, 255, 255);" x1="211.424" y1="315.489" x2="210.704" y2="405.486"/>
  <path d="M 228.387 345.947 C 228.387 349.114 229.664 350.697 232.217 350.697 C 232.804 350.697 233.35 350.62 233.857 350.467 C 234.364 350.314 234.794 350.137 235.147 349.937 L 235.147 340.897 C 234.867 340.844 234.537 340.797 234.157 340.757 C 233.777 340.724 233.334 340.707 232.827 340.707 C 231.334 340.707 230.22 341.2 229.487 342.187 C 228.754 343.174 228.387 344.427 228.387 345.947 Z M 240.807 337.287 L 240.807 354.077 C 240.807 357.344 239.977 359.77 238.317 361.357 C 236.657 362.937 234.094 363.727 230.627 363.727 C 229.407 363.727 228.19 363.62 226.977 363.407 C 225.764 363.194 224.637 362.91 223.597 362.557 L 224.587 357.807 C 225.474 358.16 226.404 358.437 227.377 358.637 C 228.35 358.844 229.457 358.947 230.697 358.947 C 232.324 358.947 233.47 358.59 234.137 357.877 C 234.81 357.17 235.147 356.26 235.147 355.147 L 235.147 354.417 C 234.54 354.697 233.914 354.907 233.267 355.047 C 232.62 355.187 231.917 355.257 231.157 355.257 C 228.397 355.257 226.28 354.44 224.807 352.807 C 223.34 351.174 222.607 348.887 222.607 345.947 C 222.607 344.48 222.834 343.144 223.287 341.937 C 223.747 340.737 224.414 339.704 225.287 338.837 C 226.16 337.977 227.23 337.314 228.497 336.847 C 229.764 336.38 231.194 336.147 232.787 336.147 C 233.474 336.147 234.177 336.177 234.897 336.237 C 235.624 336.304 236.34 336.387 237.047 336.487 C 237.754 336.587 238.43 336.707 239.077 336.847 C 239.724 336.987 240.3 337.134 240.807 337.287 ZM 263.826 346.557 C 263.826 348.124 263.596 349.56 263.136 350.867 C 262.683 352.174 262.026 353.287 261.166 354.207 C 260.3 355.134 259.266 355.85 258.066 356.357 C 256.86 356.864 255.51 357.117 254.016 357.117 C 252.55 357.117 251.213 356.864 250.006 356.357 C 248.806 355.85 247.776 355.134 246.916 354.207 C 246.05 353.287 245.376 352.174 244.896 350.867 C 244.416 349.56 244.176 348.124 244.176 346.557 C 244.176 344.984 244.423 343.55 244.916 342.257 C 245.41 340.97 246.093 339.87 246.966 338.957 C 247.84 338.044 248.88 337.334 250.086 336.827 C 251.286 336.32 252.596 336.067 254.016 336.067 C 255.463 336.067 256.786 336.32 257.986 336.827 C 259.193 337.334 260.226 338.044 261.086 338.957 C 261.946 339.87 262.616 340.97 263.096 342.257 C 263.583 343.55 263.826 344.984 263.826 346.557 Z M 258.046 346.557 C 258.046 344.81 257.7 343.437 257.006 342.437 C 256.306 341.43 255.31 340.927 254.016 340.927 C 252.723 340.927 251.723 341.43 251.016 342.437 C 250.31 343.437 249.956 344.81 249.956 346.557 C 249.956 348.304 250.31 349.69 251.016 350.717 C 251.723 351.744 252.723 352.257 254.016 352.257 C 255.31 352.257 256.306 351.744 257.006 350.717 C 257.7 349.69 258.046 348.304 258.046 346.557 ZM 279.579 357.117 C 275.299 357.117 272.036 355.927 269.789 353.547 C 267.549 351.167 266.429 347.784 266.429 343.397 C 266.429 341.224 266.773 339.28 267.459 337.567 C 268.139 335.86 269.076 334.417 270.269 333.237 C 271.456 332.057 272.873 331.164 274.519 330.557 C 276.166 329.95 277.953 329.647 279.879 329.647 C 280.993 329.647 282.006 329.727 282.919 329.887 C 283.833 330.054 284.633 330.244 285.319 330.457 C 285.999 330.677 286.569 330.9 287.029 331.127 C 287.483 331.354 287.809 331.53 288.009 331.657 L 286.299 336.447 C 285.493 336.014 284.549 335.647 283.469 335.347 C 282.396 335.04 281.176 334.887 279.809 334.887 C 278.896 334.887 278.003 335.04 277.129 335.347 C 276.256 335.647 275.483 336.134 274.809 336.807 C 274.136 337.48 273.596 338.347 273.189 339.407 C 272.789 340.474 272.589 341.767 272.589 343.287 C 272.589 344.5 272.723 345.634 272.989 346.687 C 273.249 347.74 273.679 348.647 274.279 349.407 C 274.873 350.167 275.649 350.767 276.609 351.207 C 277.576 351.654 278.743 351.877 280.109 351.877 C 280.969 351.877 281.743 351.827 282.429 351.727 C 283.109 351.62 283.716 351.5 284.249 351.367 C 284.783 351.227 285.253 351.067 285.659 350.887 C 286.066 350.707 286.433 350.544 286.759 350.397 L 288.389 355.147 C 287.556 355.654 286.379 356.107 284.859 356.507 C 283.339 356.914 281.579 357.117 279.579 357.117 ZM 296.47 356.587 L 290.81 356.587 L 290.81 328.007 L 296.47 327.097 L 296.47 336.677 C 296.85 336.55 297.34 336.43 297.94 336.317 C 298.534 336.204 299.107 336.147 299.66 336.147 C 301.287 336.147 302.637 336.367 303.71 336.807 C 304.79 337.254 305.65 337.88 306.29 338.687 C 306.937 339.5 307.394 340.464 307.66 341.577 C 307.927 342.69 308.06 343.93 308.06 345.297 L 308.06 356.587 L 302.4 356.587 L 302.4 345.987 C 302.4 344.16 302.167 342.867 301.7 342.107 C 301.227 341.347 300.357 340.967 299.09 340.967 C 298.584 340.967 298.11 341.014 297.67 341.107 C 297.224 341.194 296.824 341.287 296.47 341.387 L 296.47 356.587 ZM 311.24 346.747 C 311.24 344.974 311.513 343.42 312.06 342.087 C 312.6 340.76 313.313 339.654 314.2 338.767 C 315.086 337.88 316.106 337.207 317.26 336.747 C 318.413 336.294 319.6 336.067 320.82 336.067 C 323.653 336.067 325.893 336.934 327.54 338.667 C 329.186 340.407 330.01 342.96 330.01 346.327 C 330.01 346.654 329.996 347.014 329.97 347.407 C 329.95 347.8 329.926 348.15 329.9 348.457 L 317.05 348.457 C 317.176 349.624 317.723 350.547 318.69 351.227 C 319.65 351.914 320.94 352.257 322.56 352.257 C 323.6 352.257 324.62 352.16 325.62 351.967 C 326.62 351.78 327.436 351.547 328.07 351.267 L 328.83 355.867 C 328.53 356.02 328.126 356.17 327.62 356.317 C 327.113 356.47 326.55 356.604 325.93 356.717 C 325.31 356.83 324.643 356.927 323.93 357.007 C 323.223 357.08 322.513 357.117 321.8 357.117 C 320.006 357.117 318.443 356.85 317.11 356.317 C 315.783 355.79 314.68 355.064 313.8 354.137 C 312.926 353.21 312.283 352.114 311.87 350.847 C 311.45 349.58 311.24 348.214 311.24 346.747 Z M 317.05 344.577 L 324.54 344.577 C 324.513 344.097 324.43 343.63 324.29 343.177 C 324.15 342.717 323.936 342.31 323.65 341.957 C 323.356 341.604 322.986 341.314 322.54 341.087 C 322.1 340.854 321.55 340.737 320.89 340.737 C 320.256 340.737 319.713 340.847 319.26 341.067 C 318.8 341.28 318.42 341.564 318.12 341.917 C 317.813 342.27 317.576 342.684 317.41 343.157 C 317.25 343.624 317.13 344.097 317.05 344.577 ZM 344.359 356.587 L 344.359 345.987 C 344.359 344.16 344.126 342.867 343.659 342.107 C 343.192 341.347 342.389 340.967 341.249 340.967 C 340.889 340.967 340.519 340.987 340.139 341.027 C 339.759 341.067 339.392 341.11 339.039 341.157 L 339.039 356.587 L 333.379 356.587 L 333.379 337.287 C 333.859 337.16 334.422 337.027 335.069 336.887 C 335.716 336.747 336.399 336.62 337.119 336.507 C 337.846 336.394 338.589 336.304 339.349 336.237 C 340.109 336.177 340.856 336.147 341.589 336.147 C 343.029 336.147 344.199 336.33 345.099 336.697 C 345.999 337.064 346.742 337.5 347.329 338.007 C 348.136 337.42 349.066 336.964 350.119 336.637 C 351.172 336.31 352.142 336.147 353.029 336.147 C 354.622 336.147 355.932 336.367 356.959 336.807 C 357.986 337.254 358.802 337.88 359.409 338.687 C 360.016 339.5 360.432 340.464 360.659 341.577 C 360.892 342.69 361.009 343.93 361.009 345.297 L 361.009 356.587 L 355.339 356.587 L 355.339 345.987 C 355.339 344.16 355.106 342.867 354.639 342.107 C 354.172 341.347 353.369 340.967 352.229 340.967 C 351.922 340.967 351.496 341.044 350.949 341.197 C 350.409 341.35 349.962 341.54 349.609 341.767 C 349.782 342.347 349.896 342.96 349.949 343.607 C 349.996 344.254 350.019 344.944 350.019 345.677 L 350.019 356.587 L 344.359 356.587 Z" transform="matrix(1, 0, 0, 1, 0, 0)" style="fill: rgb(57, 181, 74); white-space: pre;"/>
  <path d="M 241.013 348.103 C 239.166 348.103 237.78 347.59 236.853 346.563 C 235.92 345.53 235.453 343.993 235.453 341.953 C 235.453 339.913 235.92 338.376 236.853 337.343 C 237.78 336.31 239.166 335.793 241.013 335.793 C 241.653 335.793 242.276 335.873 242.883 336.033 C 243.496 336.186 244.093 336.4 244.673 336.673 L 244.673 337.923 C 244.12 337.623 243.55 337.396 242.963 337.243 C 242.37 337.096 241.77 337.023 241.163 337.023 C 240.15 337.023 239.323 337.196 238.683 337.543 C 238.043 337.89 237.57 338.426 237.263 339.153 C 236.956 339.88 236.803 340.813 236.803 341.953 C 236.803 343.093 236.956 344.026 237.263 344.753 C 237.57 345.48 238.043 346.016 238.683 346.363 C 239.323 346.71 240.15 346.883 241.163 346.883 C 241.77 346.883 242.37 346.81 242.963 346.663 C 243.55 346.523 244.12 346.303 244.673 346.003 L 244.673 347.243 C 244.286 347.423 243.893 347.58 243.493 347.713 C 243.086 347.846 242.676 347.946 242.263 348.013 C 241.85 348.073 241.433 348.103 241.013 348.103 ZM 253.118 348.143 C 251.931 348.143 250.938 347.913 250.138 347.453 C 249.345 346.986 248.745 346.3 248.338 345.393 C 247.938 344.48 247.738 343.34 247.738 341.973 C 247.738 339.933 248.191 338.393 249.098 337.353 C 250.005 336.313 251.345 335.793 253.118 335.793 C 254.318 335.793 255.318 336.023 256.118 336.483 C 256.918 336.95 257.518 337.64 257.918 338.553 C 258.318 339.46 258.518 340.6 258.518 341.973 C 258.518 344.013 258.065 345.55 257.158 346.583 C 256.251 347.623 254.905 348.143 253.118 348.143 Z M 253.118 346.923 C 254.065 346.923 254.838 346.746 255.438 346.393 C 256.038 346.046 256.481 345.506 256.768 344.773 C 257.048 344.046 257.188 343.113 257.188 341.973 C 257.188 340.833 257.048 339.9 256.768 339.173 C 256.481 338.446 256.038 337.906 255.438 337.553 C 254.838 337.2 254.065 337.023 253.118 337.023 C 252.185 337.023 251.418 337.2 250.818 337.553 C 250.218 337.906 249.778 338.446 249.498 339.173 C 249.211 339.9 249.068 340.833 249.068 341.973 C 249.068 343.113 249.211 344.046 249.498 344.773 C 249.778 345.506 250.218 346.046 250.818 346.393 C 251.418 346.746 252.185 346.923 253.118 346.923 ZM 263.429 347.963 L 262.129 347.963 L 262.129 335.953 L 263.609 335.953 L 271.089 346.523 L 270.769 347.023 L 270.769 335.953 L 272.069 335.953 L 272.069 347.963 L 270.609 347.963 L 262.829 337.003 L 263.429 336.443 L 263.429 347.963 ZM 279.524 348.143 C 278.924 348.143 278.414 348.1 277.994 348.013 C 277.574 347.933 277.197 347.813 276.864 347.653 C 276.524 347.5 276.157 347.32 275.764 347.113 L 275.764 345.713 C 276.151 346.04 276.667 346.326 277.314 346.573 C 277.961 346.826 278.717 346.953 279.584 346.953 C 280.491 346.953 281.154 346.76 281.574 346.373 C 281.987 345.98 282.194 345.483 282.194 344.883 C 282.194 344.383 282.054 343.98 281.774 343.673 C 281.501 343.366 281.147 343.113 280.714 342.913 C 280.281 342.713 279.824 342.523 279.344 342.343 C 278.937 342.203 278.534 342.05 278.134 341.883 C 277.727 341.723 277.364 341.52 277.044 341.273 C 276.717 341.026 276.457 340.71 276.264 340.323 C 276.077 339.93 275.984 339.44 275.984 338.853 C 275.984 338.533 276.047 338.193 276.174 337.833 C 276.294 337.473 276.497 337.136 276.784 336.823 C 277.064 336.51 277.441 336.256 277.914 336.063 C 278.387 335.87 278.967 335.773 279.654 335.773 C 280.121 335.773 280.521 335.806 280.854 335.873 C 281.181 335.94 281.494 336.036 281.794 336.163 C 282.094 336.29 282.431 336.443 282.804 336.623 L 282.804 337.953 C 282.491 337.773 282.194 337.61 281.914 337.463 C 281.627 337.31 281.314 337.19 280.974 337.103 C 280.634 337.01 280.217 336.963 279.724 336.963 C 279.137 336.963 278.667 337.046 278.314 337.213 C 277.961 337.386 277.701 337.61 277.534 337.883 C 277.374 338.156 277.294 338.45 277.294 338.763 C 277.294 339.256 277.404 339.646 277.624 339.933 C 277.851 340.22 278.164 340.456 278.564 340.643 C 278.964 340.83 279.427 341.013 279.954 341.193 C 280.374 341.34 280.794 341.5 281.214 341.673 C 281.634 341.846 282.017 342.063 282.364 342.323 C 282.704 342.576 282.981 342.9 283.194 343.293 C 283.401 343.68 283.504 344.163 283.504 344.743 C 283.504 345.283 283.384 345.813 283.144 346.333 C 282.904 346.853 282.497 347.286 281.924 347.633 C 281.344 347.973 280.544 348.143 279.524 348.143 ZM 291.813 348.143 C 290.327 348.143 289.17 347.706 288.343 346.833 C 287.523 345.953 287.113 344.696 287.113 343.063 L 287.113 335.953 L 288.413 335.953 L 288.413 343.143 C 288.413 344.423 288.7 345.373 289.273 345.993 C 289.847 346.613 290.693 346.923 291.813 346.923 C 292.927 346.923 293.777 346.613 294.363 345.993 C 294.957 345.373 295.253 344.423 295.253 343.143 L 295.253 335.953 L 296.513 335.953 L 296.513 343.063 C 296.513 344.156 296.327 345.083 295.953 345.843 C 295.58 346.596 295.047 347.166 294.353 347.553 C 293.653 347.946 292.807 348.143 291.813 348.143 ZM 307.998 347.963 L 300.568 347.963 L 300.568 335.953 L 301.868 335.953 L 301.868 346.703 L 307.998 346.703 L 307.998 347.963 ZM 313.912 347.963 L 312.622 347.963 L 312.622 337.183 L 308.372 337.183 L 308.372 335.953 L 318.142 335.953 L 318.142 337.183 L 313.912 337.183 L 313.912 347.963 ZM 322.335 347.963 L 321.035 347.963 L 321.035 335.953 L 322.335 335.953 L 322.335 347.963 ZM 327.691 347.963 L 326.391 347.963 L 326.391 335.953 L 327.871 335.953 L 335.351 346.523 L 335.031 347.023 L 335.031 335.953 L 336.331 335.953 L 336.331 347.963 L 334.871 347.963 L 327.091 337.003 L 327.691 336.443 L 327.691 347.963 ZM 345.496 348.143 C 344.276 348.143 343.249 347.913 342.416 347.453 C 341.589 346.986 340.969 346.296 340.556 345.383 C 340.142 344.463 339.936 343.32 339.936 341.953 C 339.936 340.586 340.142 339.446 340.556 338.533 C 340.969 337.62 341.589 336.936 342.416 336.483 C 343.249 336.023 344.276 335.793 345.496 335.793 C 346.156 335.793 346.806 335.86 347.446 335.993 C 348.079 336.126 348.689 336.33 349.276 336.603 L 349.276 337.953 C 348.716 337.7 348.129 337.48 347.516 337.293 C 346.902 337.113 346.279 337.023 345.646 337.023 C 344.632 337.023 343.799 337.2 343.146 337.553 C 342.492 337.906 342.009 338.446 341.696 339.173 C 341.389 339.9 341.236 340.826 341.236 341.953 C 341.236 343.08 341.389 344.01 341.696 344.743 C 342.009 345.476 342.492 346.02 343.146 346.373 C 343.799 346.726 344.632 346.903 345.646 346.903 C 346.126 346.903 346.592 346.866 347.046 346.793 C 347.499 346.72 347.949 346.613 348.396 346.473 L 348.396 343.053 L 345.496 343.053 L 345.496 341.793 L 349.696 341.793 L 349.696 347.203 C 349.036 347.516 348.356 347.753 347.656 347.913 C 346.962 348.066 346.242 348.143 345.496 348.143 Z" transform="matrix(1.1848909854888916, 0, 0, 1, -55.43815231323242, 33.67875671386719)" style="fill: rgb(57, 181, 74); white-space: pre;"/>
</svg>