<?xml version="1.0" encoding="utf-8"?>
<svg viewBox="88.054 38.577 251.212 89.997" xmlns="http://www.w3.org/2000/svg">
  <g id="SvgjsG2487" featurekey="ZxbabI-0" transform="matrix(0.001725, 0, 0, 0.001725, 78.246597, 38.607594)" fill="#ff5722">
    <g xmlns="http://www.w3.org/2000/svg">
      <path class="fil0" d="M35397.32 5555.91c-1006.25,-755.74 -1118.55,-2244.81 -223.31,-3140.01 809.1,-809.1 2137.14,-809.13 2946.23,0 809.13,809.09 809.1,2137.13 0,2946.23 -600.94,600.97 -1513.35,776.3 -2291.99,443.05l-6685.54 11579.72 3511.66 6082.38 5376.32 0c56.86,-475.36 273.75,-901.56 595.32,-1223.11 809.11,-809.11 2137.12,-809.11 2946.23,0 809.13,809.09 809.1,2137.13 0,2946.23 -809.1,809.1 -2137.14,809.13 -2946.23,0 -321.56,-321.56 -538.46,-747.76 -595.32,-1223.12l-5367.51 0 -955.12 1654.33c-162.92,283.52 -594.57,35.49 -431.64,-248.04l951.85 -1648.66 -3502.28 -6066.14 -7006.5 0c-1167.67,2022.46 -2335.18,4043.67 -3502.85,6066.14 1167.67,2022.46 2335.18,4043.67 3502.85,6066.13l1984.1 0c328.84,0 328.84,500 0,500l-1981.59 0 -8171.26 14153.04c1006.25,755.74 1118.55,2244.84 223.31,3140.03 -809.11,809.11 -2137.12,809.11 -2946.23,0 -809.13,-809.09 -809.1,-2137.13 0,-2946.23 600.96,-600.96 1513.32,-776.29 2291.99,-443.07l8169.86 -14150.62c-1175.78,-2036.5 -2350.97,-4072.96 -3526.74,-6109.46l-7925.86 -1.27c-51.2,487.35 -270.4,924.68 -598.68,1252.94 -809.1,809.1 -2137.14,809.13 -2946.23,0 -809.11,-809.11 -809.11,-2137.12 0,-2946.23 809.09,-809.13 2137.13,-809.1 2946.23,0 315.57,315.57 530.34,731.91 591.98,1196.59l7978.97 -2.03c1163.76,-2015.71 2326.94,-4031.38 3490.71,-6047.08l-5664.08 -9810.48c-783.83,349.25 -1711.21,178.03 -2320.04,-430.8 -809.12,-809.07 -809.12,-2137.15 0,-2946.22 809.11,-809.11 2137.12,-809.11 2946.23,0 886.07,886.02 786.85,2358.19 -198.93,3121.4l5679.52 9837.22 6943.35 0c2234.48,-3870.25 4476.92,-7732.94 6711.22,-11602.86zm-14964.17 16278.6c98.53,-170.12 357.51,-20.11 258.98,150l-1023.35 1762.56 1003.49 1622.33c100.84,168.57 -145.79,332.1 -246.64,163.52l-1104.42 -1783.87 1111.94 -1914.54zm6242.92 -13509.71c809.13,809.09 809.1,2137.13 0,2946.23 -322.46,322.47 -750.16,539.69 -1227.13,595.8l0 3971.26c0,328.84 -500,328.84 -500,0l0 -3972.23c-473.74,-57.6 -898.45,-274.18 -1219.1,-594.83 -809.1,-809.1 -809.13,-2137.14 0,-2946.23 809.1,-809.1 2137.14,-809.13 2946.23,0zm-353.52 353.52c-614.88,-614.9 -1624.3,-614.89 -2239.19,0 -614.9,614.88 -614.89,1624.3 0,2239.19 614.89,614.89 1624.31,614.9 2239.19,0 614.89,-614.89 614.9,-1624.31 0,-2239.19zm3088.8 11885.79c97.75,170.12 -161.24,318.93 -258.98,148.82l-1100.75 -1906.56 -2202.93 0c-197.31,0 -197.31,-300 0,-300l2374.62 0 1188.04 2057.74zm14296.48 -9097.12c809.13,809.09 809.1,2137.13 0,2946.23 -822.51,822.51 -2175.19,806.64 -2979.08,-33.62l-8146.62 5471.25c-271.97,182.17 -549.32,-231.89 -277.34,-414.06l8124.55 -5456.43c-469.16,-812.47 -333.03,-1848.11 332.26,-2513.37 809.11,-809.11 2137.12,-809.11 2946.23,0zm-353.52 353.52c-614.89,-614.89 -1624.3,-614.89 -2239.19,0 -614.9,614.88 -614.89,1624.3 0,2239.19 614.88,614.9 1624.3,614.89 2239.19,0 614.89,-614.89 614.9,-1624.31 0,-2239.19zm-28797.72 18164.67l3346.5 -2240.93c271.97,-182.17 549.32,231.89 277.34,414.06l-3345.63 2240.34c408.87,800.21 254.16,1782.29 -383.23,2419.68 -809.1,809.1 -2137.14,809.13 -2946.23,0 -809.11,-809.11 -809.11,-2137.12 0,-2946.23 847.61,-847.65 2267.2,-795.73 3051.25,113.08zm-458.54 240.44c-612.02,-612.02 -1627.23,-611.98 -2239.19,0 -614.89,614.89 -614.89,1624.3 0,2239.19 614.88,614.9 1624.3,614.89 2239.19,0 471.49,-471.49 581.44,-1174.96 329.87,-1754.64 -76.51,-176.29 -186.47,-341.16 -329.87,-484.55zm-2916.71 14765.78c-614.89,614.89 -614.9,1624.31 0,2239.19 614.89,614.89 1624.3,614.89 2239.19,0 664.72,-664.7 602.07,-1775.77 -133.4,-2357.98 -617.74,-488.91 -1540.11,-446.89 -2105.79,118.79zm-2296.47 -22397.71c-614.89,-614.89 -1624.31,-614.9 -2239.19,0 -614.89,614.89 -614.89,1624.3 0,2239.19 614.88,614.9 1624.3,614.89 2239.19,0 614.9,-614.88 614.89,-1624.3 0,-2239.19zm7023.77 -18040.02c-614.89,-614.89 -1624.3,-614.89 -2239.19,0 -614.9,614.87 -614.9,1624.31 0,2239.18 474.89,474.89 1185.1,583.01 1767.14,324.38 999.83,-444.24 1258.13,-1777.51 472.05,-2563.56zm25310.08 18044.02c-614.89,-614.89 -1624.3,-614.89 -2239.19,0 -614.9,614.88 -614.89,1624.3 0,2239.19 614.88,614.9 1624.3,614.89 2239.19,0 614.89,-614.89 614.9,-1624.31 0,-2239.19zm-3452 -19828.27c-614.88,-614.9 -1624.3,-614.89 -2239.19,0 -657.56,657.54 -575.44,1771.08 139.43,2361.81 119.85,99.03 251.45,167.74 389.68,225.93 576.58,242.71 1242.88,118.66 1710.08,-348.55 614.89,-614.89 614.9,-1624.31 0,-2239.19zm5315.54 38507.52l1105.89 1467.63c197.82,262.06 -200.64,562.82 -398.44,300.78l-1130.29 -1500.01c-241.42,-265 -745.89,-21.15 -1072,74.26 -1322.3,474.61 -4099.76,1932.43 -6149.32,3997.36 -312.43,314.78 -431.93,540.92 -327.53,700.62l1089.82 1477.09c197.57,260.44 -198.93,561.2 -396.48,300.78l-1153.47 -1530.44c-278.51,-369.54 102.06,-898.55 349.01,-1198.01 -877.01,-1117.9 -1969.18,-1511.7 -3154.53,-1939.07 -2674.55,-964.32 -4176.19,-2211.41 -5801,-4521.35 -952.49,-1354.12 -1666.2,-3769.06 -1649.94,-5458.2 16.87,-1748.7 1549.7,-1670.91 2365.38,-727.64 357.31,413.19 617.68,1050.6 785.88,1979.54 57.14,315.59 151.55,604.16 258.29,863.86 206.2,501.71 242.89,498.16 113.26,-34.47 -94.61,-388.74 -157.48,-791.25 -231.75,-1183.21 -493.09,-2602.54 -1318.06,-5401.71 -2156.42,-7926.25 -901.73,-2715.22 2064.29,-3872.23 3065,-809.28 303.96,930.28 732.18,2014.8 1080.88,2928.83 889.62,-260.36 1746.3,-29.88 2434.04,577.32 954.24,-536.06 2284.42,146.12 2907.81,926.62 3162.29,-781.52 3996.77,4118.85 4478.89,5699.38 561.26,1993.68 1144.85,4066.4 2132.07,5339.23 501.32,-151.64 1087.68,-292.79 1454.95,194.63zm-7742.02 3717.25c1401.61,-1408 3961.2,-3020.07 5793.03,-3738.69 -985.64,-1353.99 -1562.77,-3403.63 -2118.49,-5377.66 -847.29,-3009.67 -1642.59,-5833.88 -3700.29,-5401.26 300.95,494.05 545.16,1049.16 685.5,1610.35 79.65,318.56 -404.73,439.67 -484.38,121.1 -148.33,-593.19 -450.25,-1252.42 -808.63,-1746.68 -457.17,-630.45 -1439.82,-1248.39 -2236.54,-964.1 561.83,709.13 963.1,1724.68 1188.99,2592.41 82.2,317.31 -400.23,442.26 -482.42,125 -209.02,-802.92 -658.89,-1972.65 -1241.25,-2573.55 -564.42,-582.43 -1288.2,-850.56 -2083.9,-632.24 397.14,1053.25 807.46,2147.3 1097.29,3185.38 87.35,316.02 -393.13,448.79 -480.46,132.82 -612.05,-2192.2 -1646.98,-4411.25 -2349.67,-6561.84 -781.27,-2391.24 -2819.42,-1614.15 -2117.74,498.72 846.75,2549.75 1675.85,5361.51 2174,7990.71 220.89,1165.74 454.87,2400.52 816.06,3246.61 128.46,301.88 -330.54,497.17 -458.98,195.32 -46.78,-109.57 -91.41,-224.67 -134.13,-344.47 -152.73,-428.24 -118.53,-276.15 -411.77,-586.66 -159.14,-168.53 -312.75,-377.28 -449.54,-619.47 -212.67,-376.56 -387.8,-837.97 -481.92,-1357.81 -151.35,-835.86 -373.92,-1395.87 -672.6,-1741.26 -525.39,-607.59 -1478.74,-803.83 -1490.38,405.36 -15.23,1582.06 668.32,3899.39 1560.1,5167.2 1563.4,2222.65 2987.8,3412 5560.76,4339.69 1235.08,445.3 2374.75,856.3 3327.36,2035.02z" style="fill-rule: nonzero; stroke-linecap: square; stroke-width: 0px; fill: rgb(3, 3, 3);"/>
    </g>
  </g>
  <line style="fill-rule: nonzero; paint-order: stroke; stroke-width: 1.5px; fill: rgb(85, 71, 67); stroke: rgb(67, 63, 63);" x1="167.313" y1="38.577" x2="166.593" y2="128.574"/>
  <path d="M 199.686 59.805 C 199.619 60.672 199.306 61.515 198.746 62.335 C 198.179 63.162 197.583 63.778 196.956 64.185 C 196.029 63.565 195.019 63.068 193.926 62.695 C 192.826 62.315 191.743 62.125 190.676 62.125 C 189.389 62.125 188.276 62.432 187.336 63.045 C 186.396 63.652 185.669 64.602 185.156 65.895 C 184.643 67.182 184.386 68.842 184.386 70.875 C 184.386 73.848 184.936 76.018 186.036 77.385 C 187.136 78.758 188.706 79.445 190.746 79.445 C 191.993 79.445 193.113 79.332 194.106 79.105 C 195.093 78.878 195.909 78.675 196.556 78.495 L 199.746 82.665 C 199.006 82.918 198.123 83.165 197.096 83.405 C 196.063 83.652 194.923 83.852 193.676 84.005 C 192.423 84.165 191.099 84.245 189.706 84.245 C 187.746 84.245 186.043 83.935 184.596 83.315 C 183.149 82.688 181.949 81.792 180.996 80.625 C 180.043 79.458 179.333 78.048 178.866 76.395 C 178.393 74.748 178.156 72.895 178.156 70.835 C 178.156 68.522 178.493 66.505 179.166 64.785 C 179.839 63.065 180.753 61.638 181.906 60.505 C 183.066 59.365 184.369 58.508 185.816 57.935 C 187.263 57.368 188.763 57.085 190.316 57.085 C 192.063 57.085 193.736 57.338 195.336 57.845 C 196.943 58.352 198.393 59.005 199.686 59.805 Z M 194.026 82.745 L 194.026 76.605 C 194.026 75.705 194.059 74.752 194.126 73.745 C 194.186 72.732 194.336 71.798 194.576 70.945 L 199.746 72.665 L 199.746 82.665 L 194.026 82.745 Z M 189.756 68.895 L 195.726 68.895 C 197.233 68.895 198.279 69.245 198.866 69.945 C 199.453 70.652 199.746 71.558 199.746 72.665 L 199.746 73.955 L 192.236 73.955 C 191.576 73.955 191.029 73.878 190.596 73.725 C 190.163 73.565 189.843 73.302 189.636 72.935 C 189.423 72.562 189.316 72.052 189.316 71.405 C 189.316 71.012 189.359 70.588 189.446 70.135 C 189.526 69.675 189.629 69.262 189.756 68.895 ZM 209.52 70.645 C 209.52 71.645 209.576 72.668 209.69 73.715 C 209.796 74.755 210.016 75.718 210.35 76.605 C 210.69 77.498 211.19 78.215 211.85 78.755 C 212.51 79.295 213.393 79.565 214.5 79.565 C 215.586 79.565 216.463 79.295 217.13 78.755 C 217.79 78.215 218.286 77.498 218.62 76.605 C 218.96 75.718 219.183 74.755 219.29 73.715 C 219.396 72.668 219.45 71.645 219.45 70.645 C 219.45 69.638 219.396 68.615 219.29 67.575 C 219.183 66.535 218.96 65.578 218.62 64.705 C 218.286 63.825 217.79 63.115 217.13 62.575 C 216.463 62.035 215.586 61.765 214.5 61.765 C 213.393 61.765 212.51 62.035 211.85 62.575 C 211.19 63.115 210.69 63.825 210.35 64.705 C 210.016 65.578 209.796 66.535 209.69 67.575 C 209.576 68.615 209.52 69.638 209.52 70.645 Z M 203.16 70.645 C 203.16 67.925 203.57 65.552 204.39 63.525 C 205.21 61.492 206.456 59.908 208.13 58.775 C 209.81 57.648 211.933 57.085 214.5 57.085 C 216.426 57.085 218.103 57.412 219.53 58.065 C 220.95 58.718 222.126 59.642 223.06 60.835 C 223.993 62.028 224.69 63.458 225.15 65.125 C 225.603 66.785 225.83 68.625 225.83 70.645 C 225.83 73.378 225.416 75.762 224.59 77.795 C 223.763 79.835 222.516 81.422 220.85 82.555 C 219.176 83.682 217.06 84.245 214.5 84.245 C 212.553 84.245 210.87 83.918 209.45 83.265 C 208.023 82.612 206.846 81.685 205.92 80.485 C 204.993 79.285 204.303 77.852 203.85 76.185 C 203.39 74.525 203.16 72.678 203.16 70.645 ZM 228.013 81.085 C 228.013 80.858 228.046 80.502 228.113 80.015 C 228.186 79.535 228.306 79.122 228.473 78.775 C 228.853 78.562 229.32 78.392 229.873 78.265 C 230.426 78.138 230.956 78.075 231.463 78.075 C 231.956 78.075 232.483 78.138 233.043 78.265 C 233.603 78.392 234.073 78.562 234.453 78.775 C 234.62 79.122 234.733 79.535 234.793 80.015 C 234.86 80.502 234.893 80.858 234.893 81.085 C 234.893 81.312 234.86 81.668 234.793 82.155 C 234.733 82.635 234.62 83.045 234.453 83.385 C 234.073 83.618 233.603 83.792 233.043 83.905 C 232.483 84.018 231.956 84.075 231.463 84.075 C 230.956 84.075 230.426 84.018 229.873 83.905 C 229.32 83.792 228.853 83.618 228.473 83.385 C 228.306 83.045 228.186 82.635 228.113 82.155 C 228.046 81.668 228.013 81.312 228.013 81.085 ZM 252.695 68.015 C 252.721 66.962 252.615 65.968 252.375 65.035 C 252.141 64.102 251.718 63.345 251.105 62.765 C 250.485 62.192 249.618 61.905 248.505 61.905 C 246.865 61.905 245.698 62.662 245.005 64.175 C 244.311 65.695 243.965 67.902 243.965 70.795 C 243.965 73.502 244.418 75.535 245.325 76.895 C 246.238 78.255 247.525 78.935 249.185 78.935 C 250.505 78.935 251.695 78.655 252.755 78.095 C 253.815 77.535 254.785 76.925 255.665 76.265 C 256.258 76.672 256.838 77.248 257.405 77.995 C 257.971 78.748 258.325 79.478 258.465 80.185 C 257.725 80.912 256.815 81.582 255.735 82.195 C 254.648 82.815 253.448 83.312 252.135 83.685 C 250.828 84.058 249.471 84.245 248.065 84.245 C 246.071 84.245 244.398 83.855 243.045 83.075 C 241.691 82.295 240.615 81.255 239.815 79.955 C 239.015 78.648 238.441 77.198 238.095 75.605 C 237.741 74.012 237.565 72.395 237.565 70.755 C 237.565 67.568 238.071 64.965 239.085 62.945 C 240.091 60.925 241.438 59.442 243.125 58.495 C 244.818 57.542 246.681 57.065 248.715 57.065 C 250.681 57.065 252.398 57.412 253.865 58.105 C 255.331 58.805 256.468 59.752 257.275 60.945 C 258.081 62.138 258.485 63.485 258.485 64.985 C 258.485 66.165 258.175 67.018 257.555 67.545 C 256.941 68.072 256.088 68.335 254.995 68.335 C 254.555 68.335 254.151 68.305 253.785 68.245 C 253.425 68.178 253.061 68.102 252.695 68.015 ZM 274.478 72.815 L 270.078 72.815 C 269.884 72.815 269.678 72.812 269.458 72.805 C 269.238 72.798 269.011 72.792 268.778 72.785 C 268.551 72.778 268.348 72.775 268.168 72.775 C 267.574 72.775 266.961 72.782 266.328 72.795 C 265.701 72.808 265.091 72.815 264.498 72.815 L 264.498 67.715 C 265.091 67.715 265.701 67.722 266.328 67.735 C 266.961 67.742 267.574 67.745 268.168 67.745 C 268.348 67.745 268.551 67.742 268.778 67.735 C 269.011 67.735 269.238 67.732 269.458 67.725 C 269.678 67.718 269.884 67.715 270.078 67.715 L 274.478 67.715 C 274.651 67.715 274.854 67.718 275.088 67.725 C 275.314 67.732 275.538 67.735 275.758 67.735 C 275.984 67.742 276.191 67.745 276.378 67.745 C 276.978 67.745 277.588 67.742 278.208 67.735 C 278.834 67.722 279.444 67.715 280.038 67.715 L 280.038 72.815 C 279.444 72.815 278.834 72.808 278.208 72.795 C 277.588 72.782 276.978 72.775 276.378 72.775 C 276.191 72.775 275.984 72.778 275.758 72.785 C 275.538 72.792 275.314 72.798 275.088 72.805 C 274.854 72.812 274.651 72.815 274.478 72.815 Z M 268.208 75.595 L 268.208 83.675 C 267.701 83.762 267.164 83.822 266.598 83.855 C 266.031 83.888 265.544 83.905 265.138 83.905 C 264.771 83.905 264.294 83.888 263.708 83.855 C 263.128 83.822 262.591 83.762 262.098 83.675 L 262.098 57.655 C 262.591 57.562 263.128 57.502 263.708 57.475 C 264.294 57.442 264.771 57.425 265.138 57.425 C 265.544 57.425 266.031 57.442 266.598 57.475 C 267.164 57.502 267.701 57.562 268.208 57.655 L 268.208 64.925 C 268.208 65.458 268.201 65.932 268.188 66.345 C 268.174 66.758 268.168 67.225 268.168 67.745 L 268.168 72.775 C 268.168 73.288 268.174 73.752 268.188 74.165 C 268.201 74.585 268.208 75.062 268.208 75.595 Z M 276.338 83.675 L 276.338 75.595 C 276.338 75.062 276.344 74.585 276.358 74.165 C 276.371 73.752 276.378 73.288 276.378 72.775 L 276.378 67.745 C 276.378 67.225 276.371 66.758 276.358 66.345 C 276.344 65.932 276.338 65.458 276.338 64.925 L 276.338 57.655 C 276.851 57.562 277.388 57.502 277.948 57.475 C 278.501 57.442 278.981 57.425 279.388 57.425 C 279.761 57.425 280.241 57.442 280.828 57.475 C 281.421 57.502 281.958 57.562 282.438 57.655 L 282.438 83.675 C 281.918 83.762 281.398 83.822 280.878 83.855 C 280.358 83.888 279.888 83.905 279.468 83.905 C 279.034 83.905 278.534 83.888 277.968 83.855 C 277.408 83.822 276.864 83.762 276.338 83.675 ZM 288.061 80.225 L 288.061 57.915 L 288.321 57.655 L 294.061 57.655 L 294.061 62.665 C 294.061 63.198 294.068 63.675 294.081 64.095 C 294.095 64.515 294.101 64.985 294.101 65.505 L 294.101 75.975 C 294.101 76.475 294.095 76.932 294.081 77.345 C 294.068 77.758 294.061 78.218 294.061 78.725 L 294.061 83.785 L 291.561 83.785 C 290.468 83.785 289.611 83.468 288.991 82.835 C 288.371 82.202 288.061 81.332 288.061 80.225 Z M 296.671 68.115 L 302.481 68.115 C 302.608 68.482 302.698 68.905 302.751 69.385 C 302.811 69.872 302.841 70.278 302.841 70.605 C 302.841 70.952 302.811 71.352 302.751 71.805 C 302.698 72.265 302.608 72.692 302.481 73.085 L 296.671 73.085 C 296.351 73.085 295.901 73.078 295.321 73.065 C 294.735 73.052 294.135 73.042 293.521 73.035 C 292.901 73.028 292.388 73.018 291.981 73.005 L 291.981 68.185 C 292.388 68.172 292.901 68.162 293.521 68.155 C 294.135 68.148 294.735 68.142 295.321 68.135 C 295.901 68.122 296.351 68.115 296.671 68.115 Z M 291.981 57.655 L 304.751 57.655 C 304.838 58.108 304.895 58.535 304.921 58.935 C 304.941 59.335 304.951 59.708 304.951 60.055 C 304.951 60.395 304.911 60.815 304.831 61.315 C 304.751 61.822 304.628 62.302 304.461 62.755 L 296.671 62.755 C 296.351 62.755 295.901 62.748 295.321 62.735 C 294.735 62.722 294.135 62.715 293.521 62.715 C 292.901 62.708 292.388 62.698 291.981 62.685 L 291.981 57.655 Z M 296.881 78.685 L 305.701 78.685 C 305.701 80.358 305.438 81.628 304.911 82.495 C 304.385 83.355 303.315 83.785 301.701 83.785 L 291.981 83.785 L 291.981 78.875 C 292.808 78.835 293.595 78.795 294.341 78.755 C 295.095 78.708 295.941 78.685 296.881 78.685 ZM 309.284 83.595 L 311.304 57.695 C 311.951 57.575 312.658 57.498 313.424 57.465 C 314.191 57.425 314.854 57.405 315.414 57.405 C 315.974 57.405 316.598 57.425 317.284 57.465 C 317.971 57.498 318.638 57.575 319.284 57.695 L 321.534 67.005 C 321.581 67.232 321.664 67.625 321.784 68.185 C 321.904 68.745 322.041 69.382 322.194 70.095 C 322.348 70.802 322.491 71.498 322.624 72.185 C 322.758 72.872 322.864 73.458 322.944 73.945 L 323.204 73.945 C 323.284 73.458 323.394 72.872 323.534 72.185 C 323.674 71.498 323.814 70.802 323.954 70.095 C 324.101 69.382 324.238 68.745 324.364 68.185 C 324.491 67.625 324.581 67.232 324.634 67.005 L 326.884 57.695 C 327.531 57.575 328.194 57.498 328.874 57.465 C 329.554 57.425 330.174 57.405 330.734 57.405 C 331.288 57.405 331.954 57.425 332.734 57.465 C 333.508 57.498 334.211 57.575 334.844 57.695 L 336.864 83.595 C 336.431 83.715 335.934 83.795 335.374 83.835 C 334.808 83.882 334.274 83.905 333.774 83.905 C 333.321 83.905 332.874 83.892 332.434 83.865 C 331.994 83.838 331.554 83.788 331.114 83.715 L 330.544 73.105 C 330.491 72.198 330.441 71.225 330.394 70.185 C 330.354 69.145 330.318 68.118 330.284 67.105 C 330.251 66.085 330.234 65.162 330.234 64.335 L 329.964 64.335 L 326.214 79.845 C 325.761 79.925 325.228 79.978 324.614 80.005 C 324.008 80.038 323.488 80.055 323.054 80.055 C 322.674 80.055 322.171 80.038 321.544 80.005 C 320.924 79.978 320.388 79.925 319.934 79.845 L 316.174 64.335 L 315.924 64.335 C 315.924 65.162 315.911 66.085 315.884 67.105 C 315.851 68.118 315.811 69.145 315.764 70.185 C 315.724 71.225 315.678 72.198 315.624 73.105 L 315.034 83.715 C 314.601 83.788 314.164 83.838 313.724 83.865 C 313.278 83.892 312.824 83.905 312.364 83.905 C 311.884 83.905 311.361 83.882 310.794 83.835 C 310.228 83.795 309.724 83.715 309.284 83.595 Z" transform="matrix(1, 0, 0, 1, 0, 0)" style="fill: rgb(3, 3, 3); white-space: pre;"/>
  <path d="M 184.362 107.724 C 182.515 107.724 181.129 107.211 180.202 106.184 C 179.269 105.151 178.802 103.614 178.802 101.574 C 178.802 99.534 179.269 97.997 180.202 96.964 C 181.129 95.931 182.515 95.414 184.362 95.414 C 185.002 95.414 185.625 95.494 186.232 95.654 C 186.845 95.807 187.442 96.021 188.022 96.294 L 188.022 97.544 C 187.469 97.244 186.899 97.017 186.312 96.864 C 185.719 96.717 185.119 96.644 184.512 96.644 C 183.499 96.644 182.672 96.817 182.032 97.164 C 181.392 97.511 180.919 98.047 180.612 98.774 C 180.305 99.501 180.152 100.434 180.152 101.574 C 180.152 102.714 180.305 103.647 180.612 104.374 C 180.919 105.101 181.392 105.637 182.032 105.984 C 182.672 106.331 183.499 106.504 184.512 106.504 C 185.119 106.504 185.719 106.431 186.312 106.284 C 186.899 106.144 187.469 105.924 188.022 105.624 L 188.022 106.864 C 187.635 107.044 187.242 107.201 186.842 107.334 C 186.435 107.467 186.025 107.567 185.612 107.634 C 185.199 107.694 184.782 107.724 184.362 107.724 ZM 196.463 107.764 C 195.277 107.764 194.283 107.534 193.483 107.074 C 192.69 106.607 192.09 105.921 191.683 105.014 C 191.283 104.101 191.083 102.961 191.083 101.594 C 191.083 99.554 191.537 98.014 192.443 96.974 C 193.35 95.934 194.69 95.414 196.463 95.414 C 197.663 95.414 198.663 95.644 199.463 96.104 C 200.263 96.571 200.863 97.261 201.263 98.174 C 201.663 99.081 201.863 100.221 201.863 101.594 C 201.863 103.634 201.41 105.171 200.503 106.204 C 199.597 107.244 198.25 107.764 196.463 107.764 Z M 196.463 106.544 C 197.41 106.544 198.183 106.367 198.783 106.014 C 199.383 105.667 199.827 105.127 200.113 104.394 C 200.393 103.667 200.533 102.734 200.533 101.594 C 200.533 100.454 200.393 99.521 200.113 98.794 C 199.827 98.067 199.383 97.527 198.783 97.174 C 198.183 96.821 197.41 96.644 196.463 96.644 C 195.53 96.644 194.763 96.821 194.163 97.174 C 193.563 97.527 193.123 98.067 192.843 98.794 C 192.557 99.521 192.413 100.454 192.413 101.594 C 192.413 102.734 192.557 103.667 192.843 104.394 C 193.123 105.127 193.563 105.667 194.163 106.014 C 194.763 106.367 195.53 106.544 196.463 106.544 ZM 206.77 107.584 L 205.47 107.584 L 205.47 95.574 L 206.95 95.574 L 214.43 106.144 L 214.11 106.644 L 214.11 95.574 L 215.41 95.574 L 215.41 107.584 L 213.95 107.584 L 206.17 96.624 L 206.77 96.064 L 206.77 107.584 ZM 222.861 107.764 C 222.261 107.764 221.751 107.721 221.331 107.634 C 220.911 107.554 220.534 107.434 220.201 107.274 C 219.861 107.121 219.494 106.941 219.101 106.734 L 219.101 105.334 C 219.487 105.661 220.004 105.947 220.651 106.194 C 221.297 106.447 222.054 106.574 222.921 106.574 C 223.827 106.574 224.491 106.381 224.911 105.994 C 225.324 105.601 225.531 105.104 225.531 104.504 C 225.531 104.004 225.391 103.601 225.111 103.294 C 224.837 102.987 224.484 102.734 224.051 102.534 C 223.617 102.334 223.161 102.144 222.681 101.964 C 222.274 101.824 221.871 101.671 221.471 101.504 C 221.064 101.344 220.701 101.141 220.381 100.894 C 220.054 100.647 219.794 100.331 219.601 99.944 C 219.414 99.551 219.321 99.061 219.321 98.474 C 219.321 98.154 219.384 97.814 219.511 97.454 C 219.631 97.094 219.834 96.757 220.121 96.444 C 220.401 96.131 220.777 95.877 221.251 95.684 C 221.724 95.491 222.304 95.394 222.991 95.394 C 223.457 95.394 223.857 95.427 224.191 95.494 C 224.517 95.561 224.831 95.657 225.131 95.784 C 225.431 95.911 225.767 96.064 226.141 96.244 L 226.141 97.574 C 225.827 97.394 225.531 97.231 225.251 97.084 C 224.964 96.931 224.651 96.811 224.311 96.724 C 223.971 96.631 223.554 96.584 223.061 96.584 C 222.474 96.584 222.004 96.667 221.651 96.834 C 221.297 97.007 221.037 97.231 220.871 97.504 C 220.711 97.777 220.631 98.071 220.631 98.384 C 220.631 98.877 220.741 99.267 220.961 99.554 C 221.187 99.841 221.501 100.077 221.901 100.264 C 222.301 100.451 222.764 100.634 223.291 100.814 C 223.711 100.961 224.131 101.121 224.551 101.294 C 224.971 101.467 225.354 101.684 225.701 101.944 C 226.041 102.197 226.317 102.521 226.531 102.914 C 226.737 103.301 226.841 103.784 226.841 104.364 C 226.841 104.904 226.721 105.434 226.481 105.954 C 226.241 106.474 225.834 106.907 225.261 107.254 C 224.681 107.594 223.881 107.764 222.861 107.764 ZM 235.146 107.764 C 233.66 107.764 232.503 107.327 231.676 106.454 C 230.856 105.574 230.446 104.317 230.446 102.684 L 230.446 95.574 L 231.746 95.574 L 231.746 102.764 C 231.746 104.044 232.033 104.994 232.606 105.614 C 233.18 106.234 234.026 106.544 235.146 106.544 C 236.26 106.544 237.11 106.234 237.696 105.614 C 238.29 104.994 238.586 104.044 238.586 102.764 L 238.586 95.574 L 239.846 95.574 L 239.846 102.684 C 239.846 103.777 239.66 104.704 239.286 105.464 C 238.913 106.217 238.38 106.787 237.686 107.174 C 236.986 107.567 236.14 107.764 235.146 107.764 ZM 251.327 107.584 L 243.897 107.584 L 243.897 95.574 L 245.197 95.574 L 245.197 106.324 L 251.327 106.324 L 251.327 107.584 ZM 257.238 107.584 L 255.948 107.584 L 255.948 96.804 L 251.698 96.804 L 251.698 95.574 L 261.468 95.574 L 261.468 96.804 L 257.238 96.804 L 257.238 107.584 ZM 265.657 107.584 L 264.357 107.584 L 264.357 95.574 L 265.657 95.574 L 265.657 107.584 ZM 271.012 107.584 L 269.712 107.584 L 269.712 95.574 L 271.192 95.574 L 278.672 106.144 L 278.352 106.644 L 278.352 95.574 L 279.652 95.574 L 279.652 107.584 L 278.192 107.584 L 270.412 96.624 L 271.012 96.064 L 271.012 107.584 ZM 288.812 107.764 C 287.592 107.764 286.566 107.534 285.732 107.074 C 284.906 106.607 284.286 105.917 283.872 105.004 C 283.459 104.084 283.252 102.941 283.252 101.574 C 283.252 100.207 283.459 99.067 283.872 98.154 C 284.286 97.241 284.906 96.557 285.732 96.104 C 286.566 95.644 287.592 95.414 288.812 95.414 C 289.472 95.414 290.122 95.481 290.762 95.614 C 291.396 95.747 292.006 95.951 292.592 96.224 L 292.592 97.574 C 292.032 97.321 291.446 97.101 290.832 96.914 C 290.219 96.734 289.596 96.644 288.962 96.644 C 287.949 96.644 287.116 96.821 286.462 97.174 C 285.809 97.527 285.326 98.067 285.012 98.794 C 284.706 99.521 284.552 100.447 284.552 101.574 C 284.552 102.701 284.706 103.631 285.012 104.364 C 285.326 105.097 285.809 105.641 286.462 105.994 C 287.116 106.347 287.949 106.524 288.962 106.524 C 289.442 106.524 289.909 106.487 290.362 106.414 C 290.816 106.341 291.266 106.234 291.712 106.094 L 291.712 102.674 L 288.812 102.674 L 288.812 101.414 L 293.012 101.414 L 293.012 106.824 C 292.352 107.137 291.672 107.374 290.972 107.534 C 290.279 107.687 289.559 107.764 288.812 107.764 Z" transform="matrix(1, 0, 0, 1, 0, 0)" style="fill: rgb(3, 3, 3); white-space: pre;"/>
</svg>