<?xml version="1.0" encoding="utf-8"?>
<svg viewBox="120.899 97.536 252.82 89.997" xmlns="http://www.w3.org/2000/svg">
  <g id="SvgjsG2487" featurekey="ZxbabI-0" transform="matrix(0.001725, 0, 0, 0.001725, 111.091751, 97.567108)" fill="#ff5722">
    <g xmlns="http://www.w3.org/2000/svg">
      <path class="fil0" d="M35397.32 5555.91c-1006.25,-755.74 -1118.55,-2244.81 -223.31,-3140.01 809.1,-809.1 2137.14,-809.13 2946.23,0 809.13,809.09 809.1,2137.13 0,2946.23 -600.94,600.97 -1513.35,776.3 -2291.99,443.05l-6685.54 11579.72 3511.66 6082.38 5376.32 0c56.86,-475.36 273.75,-901.56 595.32,-1223.11 809.11,-809.11 2137.12,-809.11 2946.23,0 809.13,809.09 809.1,2137.13 0,2946.23 -809.1,809.1 -2137.14,809.13 -2946.23,0 -321.56,-321.56 -538.46,-747.76 -595.32,-1223.12l-5367.51 0 -955.12 1654.33c-162.92,283.52 -594.57,35.49 -431.64,-248.04l951.85 -1648.66 -3502.28 -6066.14 -7006.5 0c-1167.67,2022.46 -2335.18,4043.67 -3502.85,6066.14 1167.67,2022.46 2335.18,4043.67 3502.85,6066.13l1984.1 0c328.84,0 328.84,500 0,500l-1981.59 0 -8171.26 14153.04c1006.25,755.74 1118.55,2244.84 223.31,3140.03 -809.11,809.11 -2137.12,809.11 -2946.23,0 -809.13,-809.09 -809.1,-2137.13 0,-2946.23 600.96,-600.96 1513.32,-776.29 2291.99,-443.07l8169.86 -14150.62c-1175.78,-2036.5 -2350.97,-4072.96 -3526.74,-6109.46l-7925.86 -1.27c-51.2,487.35 -270.4,924.68 -598.68,1252.94 -809.1,809.1 -2137.14,809.13 -2946.23,0 -809.11,-809.11 -809.11,-2137.12 0,-2946.23 809.09,-809.13 2137.13,-809.1 2946.23,0 315.57,315.57 530.34,731.91 591.98,1196.59l7978.97 -2.03c1163.76,-2015.71 2326.94,-4031.38 3490.71,-6047.08l-5664.08 -9810.48c-783.83,349.25 -1711.21,178.03 -2320.04,-430.8 -809.12,-809.07 -809.12,-2137.15 0,-2946.22 809.11,-809.11 2137.12,-809.11 2946.23,0 886.07,886.02 786.85,2358.19 -198.93,3121.4l5679.52 9837.22 6943.35 0c2234.48,-3870.25 4476.92,-7732.94 6711.22,-11602.86zm-14964.17 16278.6c98.53,-170.12 357.51,-20.11 258.98,150l-1023.35 1762.56 1003.49 1622.33c100.84,168.57 -145.79,332.1 -246.64,163.52l-1104.42 -1783.87 1111.94 -1914.54zm6242.92 -13509.71c809.13,809.09 809.1,2137.13 0,2946.23 -322.46,322.47 -750.16,539.69 -1227.13,595.8l0 3971.26c0,328.84 -500,328.84 -500,0l0 -3972.23c-473.74,-57.6 -898.45,-274.18 -1219.1,-594.83 -809.1,-809.1 -809.13,-2137.14 0,-2946.23 809.1,-809.1 2137.14,-809.13 2946.23,0zm-353.52 353.52c-614.88,-614.9 -1624.3,-614.89 -2239.19,0 -614.9,614.88 -614.89,1624.3 0,2239.19 614.89,614.89 1624.31,614.9 2239.19,0 614.89,-614.89 614.9,-1624.31 0,-2239.19zm3088.8 11885.79c97.75,170.12 -161.24,318.93 -258.98,148.82l-1100.75 -1906.56 -2202.93 0c-197.31,0 -197.31,-300 0,-300l2374.62 0 1188.04 2057.74zm14296.48 -9097.12c809.13,809.09 809.1,2137.13 0,2946.23 -822.51,822.51 -2175.19,806.64 -2979.08,-33.62l-8146.62 5471.25c-271.97,182.17 -549.32,-231.89 -277.34,-414.06l8124.55 -5456.43c-469.16,-812.47 -333.03,-1848.11 332.26,-2513.37 809.11,-809.11 2137.12,-809.11 2946.23,0zm-353.52 353.52c-614.89,-614.89 -1624.3,-614.89 -2239.19,0 -614.9,614.88 -614.89,1624.3 0,2239.19 614.88,614.9 1624.3,614.89 2239.19,0 614.89,-614.89 614.9,-1624.31 0,-2239.19zm-28797.72 18164.67l3346.5 -2240.93c271.97,-182.17 549.32,231.89 277.34,414.06l-3345.63 2240.34c408.87,800.21 254.16,1782.29 -383.23,2419.68 -809.1,809.1 -2137.14,809.13 -2946.23,0 -809.11,-809.11 -809.11,-2137.12 0,-2946.23 847.61,-847.65 2267.2,-795.73 3051.25,113.08zm-458.54 240.44c-612.02,-612.02 -1627.23,-611.98 -2239.19,0 -614.89,614.89 -614.89,1624.3 0,2239.19 614.88,614.9 1624.3,614.89 2239.19,0 471.49,-471.49 581.44,-1174.96 329.87,-1754.64 -76.51,-176.29 -186.47,-341.16 -329.87,-484.55zm-2916.71 14765.78c-614.89,614.89 -614.9,1624.31 0,2239.19 614.89,614.89 1624.3,614.89 2239.19,0 664.72,-664.7 602.07,-1775.77 -133.4,-2357.98 -617.74,-488.91 -1540.11,-446.89 -2105.79,118.79zm-2296.47 -22397.71c-614.89,-614.89 -1624.31,-614.9 -2239.19,0 -614.89,614.89 -614.89,1624.3 0,2239.19 614.88,614.9 1624.3,614.89 2239.19,0 614.9,-614.88 614.89,-1624.3 0,-2239.19zm7023.77 -18040.02c-614.89,-614.89 -1624.3,-614.89 -2239.19,0 -614.9,614.87 -614.9,1624.31 0,2239.18 474.89,474.89 1185.1,583.01 1767.14,324.38 999.83,-444.24 1258.13,-1777.51 472.05,-2563.56zm25310.08 18044.02c-614.89,-614.89 -1624.3,-614.89 -2239.19,0 -614.9,614.88 -614.89,1624.3 0,2239.19 614.88,614.9 1624.3,614.89 2239.19,0 614.89,-614.89 614.9,-1624.31 0,-2239.19zm-3452 -19828.27c-614.88,-614.9 -1624.3,-614.89 -2239.19,0 -657.56,657.54 -575.44,1771.08 139.43,2361.81 119.85,99.03 251.45,167.74 389.68,225.93 576.58,242.71 1242.88,118.66 1710.08,-348.55 614.89,-614.89 614.9,-1624.31 0,-2239.19zm5315.54 38507.52l1105.89 1467.63c197.82,262.06 -200.64,562.82 -398.44,300.78l-1130.29 -1500.01c-241.42,-265 -745.89,-21.15 -1072,74.26 -1322.3,474.61 -4099.76,1932.43 -6149.32,3997.36 -312.43,314.78 -431.93,540.92 -327.53,700.62l1089.82 1477.09c197.57,260.44 -198.93,561.2 -396.48,300.78l-1153.47 -1530.44c-278.51,-369.54 102.06,-898.55 349.01,-1198.01 -877.01,-1117.9 -1969.18,-1511.7 -3154.53,-1939.07 -2674.55,-964.32 -4176.19,-2211.41 -5801,-4521.35 -952.49,-1354.12 -1666.2,-3769.06 -1649.94,-5458.2 16.87,-1748.7 1549.7,-1670.91 2365.38,-727.64 357.31,413.19 617.68,1050.6 785.88,1979.54 57.14,315.59 151.55,604.16 258.29,863.86 206.2,501.71 242.89,498.16 113.26,-34.47 -94.61,-388.74 -157.48,-791.25 -231.75,-1183.21 -493.09,-2602.54 -1318.06,-5401.71 -2156.42,-7926.25 -901.73,-2715.22 2064.29,-3872.23 3065,-809.28 303.96,930.28 732.18,2014.8 1080.88,2928.83 889.62,-260.36 1746.3,-29.88 2434.04,577.32 954.24,-536.06 2284.42,146.12 2907.81,926.62 3162.29,-781.52 3996.77,4118.85 4478.89,5699.38 561.26,1993.68 1144.85,4066.4 2132.07,5339.23 501.32,-151.64 1087.68,-292.79 1454.95,194.63zm-7742.02 3717.25c1401.61,-1408 3961.2,-3020.07 5793.03,-3738.69 -985.64,-1353.99 -1562.77,-3403.63 -2118.49,-5377.66 -847.29,-3009.67 -1642.59,-5833.88 -3700.29,-5401.26 300.95,494.05 545.16,1049.16 685.5,1610.35 79.65,318.56 -404.73,439.67 -484.38,121.1 -148.33,-593.19 -450.25,-1252.42 -808.63,-1746.68 -457.17,-630.45 -1439.82,-1248.39 -2236.54,-964.1 561.83,709.13 963.1,1724.68 1188.99,2592.41 82.2,317.31 -400.23,442.26 -482.42,125 -209.02,-802.92 -658.89,-1972.65 -1241.25,-2573.55 -564.42,-582.43 -1288.2,-850.56 -2083.9,-632.24 397.14,1053.25 807.46,2147.3 1097.29,3185.38 87.35,316.02 -393.13,448.79 -480.46,132.82 -612.05,-2192.2 -1646.98,-4411.25 -2349.67,-6561.84 -781.27,-2391.24 -2819.42,-1614.15 -2117.74,498.72 846.75,2549.75 1675.85,5361.51 2174,7990.71 220.89,1165.74 454.87,2400.52 816.06,3246.61 128.46,301.88 -330.54,497.17 -458.98,195.32 -46.78,-109.57 -91.41,-224.67 -134.13,-344.47 -152.73,-428.24 -118.53,-276.15 -411.77,-586.66 -159.14,-168.53 -312.75,-377.28 -449.54,-619.47 -212.67,-376.56 -387.8,-837.97 -481.92,-1357.81 -151.35,-835.86 -373.92,-1395.87 -672.6,-1741.26 -525.39,-607.59 -1478.74,-803.83 -1490.38,405.36 -15.23,1582.06 668.32,3899.39 1560.1,5167.2 1563.4,2222.65 2987.8,3412 5560.76,4339.69 1235.08,445.3 2374.75,856.3 3327.36,2035.02z" style="fill-rule: nonzero; stroke-linecap: square; stroke-width: 0px; fill: rgb(57, 181, 74);"/>
    </g>
  </g>
  <line style="fill-rule: nonzero; paint-order: stroke; stroke-width: 1.5px; stroke: rgb(255, 255, 255); fill: rgb(57, 181, 74);" x1="200.158" y1="97.536" x2="199.438" y2="187.533"/>
  <path d="M 232.531 118.764 C 232.464 119.631 232.151 120.474 231.591 121.294 C 231.024 122.121 230.428 122.737 229.801 123.144 C 228.874 122.524 227.864 122.027 226.771 121.654 C 225.671 121.274 224.588 121.084 223.521 121.084 C 222.234 121.084 221.121 121.391 220.181 122.004 C 219.241 122.611 218.514 123.561 218.001 124.854 C 217.488 126.141 217.231 127.801 217.231 129.834 C 217.231 132.807 217.781 134.977 218.881 136.344 C 219.981 137.717 221.551 138.404 223.591 138.404 C 224.838 138.404 225.958 138.291 226.951 138.064 C 227.938 137.837 228.754 137.634 229.401 137.454 L 232.591 141.624 C 231.851 141.877 230.968 142.124 229.941 142.364 C 228.908 142.611 227.768 142.811 226.521 142.964 C 225.268 143.124 223.944 143.204 222.551 143.204 C 220.591 143.204 218.888 142.894 217.441 142.274 C 215.994 141.647 214.794 140.751 213.841 139.584 C 212.888 138.417 212.178 137.007 211.711 135.354 C 211.238 133.707 211.001 131.854 211.001 129.794 C 211.001 127.481 211.338 125.464 212.011 123.744 C 212.684 122.024 213.598 120.597 214.751 119.464 C 215.911 118.324 217.214 117.467 218.661 116.894 C 220.108 116.327 221.608 116.044 223.161 116.044 C 224.908 116.044 226.581 116.297 228.181 116.804 C 229.788 117.311 231.238 117.964 232.531 118.764 Z M 226.871 141.704 L 226.871 135.564 C 226.871 134.664 226.904 133.711 226.971 132.704 C 227.031 131.691 227.181 130.757 227.421 129.904 L 232.591 131.624 L 232.591 141.624 L 226.871 141.704 Z M 222.601 127.854 L 228.571 127.854 C 230.078 127.854 231.124 128.204 231.711 128.904 C 232.298 129.611 232.591 130.517 232.591 131.624 L 232.591 132.914 L 225.081 132.914 C 224.421 132.914 223.874 132.837 223.441 132.684 C 223.008 132.524 222.688 132.261 222.481 131.894 C 222.268 131.521 222.161 131.011 222.161 130.364 C 222.161 129.971 222.204 129.547 222.291 129.094 C 222.371 128.634 222.474 128.221 222.601 127.854 ZM 242.365 129.604 C 242.365 130.604 242.421 131.627 242.535 132.674 C 242.641 133.714 242.861 134.677 243.195 135.564 C 243.535 136.457 244.035 137.174 244.695 137.714 C 245.355 138.254 246.238 138.524 247.345 138.524 C 248.431 138.524 249.308 138.254 249.975 137.714 C 250.635 137.174 251.131 136.457 251.465 135.564 C 251.805 134.677 252.028 133.714 252.135 132.674 C 252.241 131.627 252.295 130.604 252.295 129.604 C 252.295 128.597 252.241 127.574 252.135 126.534 C 252.028 125.494 251.805 124.537 251.465 123.664 C 251.131 122.784 250.635 122.074 249.975 121.534 C 249.308 120.994 248.431 120.724 247.345 120.724 C 246.238 120.724 245.355 120.994 244.695 121.534 C 244.035 122.074 243.535 122.784 243.195 123.664 C 242.861 124.537 242.641 125.494 242.535 126.534 C 242.421 127.574 242.365 128.597 242.365 129.604 Z M 236.005 129.604 C 236.005 126.884 236.415 124.511 237.235 122.484 C 238.055 120.451 239.301 118.867 240.975 117.734 C 242.655 116.607 244.778 116.044 247.345 116.044 C 249.271 116.044 250.948 116.371 252.375 117.024 C 253.795 117.677 254.971 118.601 255.905 119.794 C 256.838 120.987 257.535 122.417 257.995 124.084 C 258.448 125.744 258.675 127.584 258.675 129.604 C 258.675 132.337 258.261 134.721 257.435 136.754 C 256.608 138.794 255.361 140.381 253.695 141.514 C 252.021 142.641 249.905 143.204 247.345 143.204 C 245.398 143.204 243.715 142.877 242.295 142.224 C 240.868 141.571 239.691 140.644 238.765 139.444 C 237.838 138.244 237.148 136.811 236.695 135.144 C 236.235 133.484 236.005 131.637 236.005 129.604 Z" transform="matrix(1, 0, 0, 1, 0, 0)" style="fill: rgb(57, 181, 74); white-space: pre;"/>
  <path d="M 261.658 140.044 C 261.658 139.817 261.691 139.461 261.758 138.974 C 261.831 138.494 261.951 138.081 262.118 137.734 C 262.498 137.521 262.965 137.351 263.518 137.224 C 264.071 137.097 264.601 137.034 265.108 137.034 C 265.601 137.034 266.128 137.097 266.688 137.224 C 267.248 137.351 267.718 137.521 268.098 137.734 C 268.265 138.081 268.378 138.494 268.438 138.974 C 268.505 139.461 268.538 139.817 268.538 140.044 C 268.538 140.271 268.505 140.627 268.438 141.114 C 268.378 141.594 268.265 142.004 268.098 142.344 C 267.718 142.577 267.248 142.751 266.688 142.864 C 266.128 142.977 265.601 143.034 265.108 143.034 C 264.601 143.034 264.071 142.977 263.518 142.864 C 262.965 142.751 262.498 142.577 262.118 142.344 C 261.951 142.004 261.831 141.594 261.758 141.114 C 261.691 140.627 261.658 140.271 261.658 140.044 Z" transform="matrix(1, 0, 0, 1, 0, 0)" style="fill: rgb(255, 255, 255); white-space: pre;"/>
  <path d="M 287.14 126.974 C 287.166 125.921 287.06 124.927 286.82 123.994 C 286.586 123.061 286.163 122.304 285.55 121.724 C 284.93 121.151 284.063 120.864 282.95 120.864 C 281.31 120.864 280.143 121.621 279.45 123.134 C 278.756 124.654 278.41 126.861 278.41 129.754 C 278.41 132.461 278.863 134.494 279.77 135.854 C 280.683 137.214 281.97 137.894 283.63 137.894 C 284.95 137.894 286.14 137.614 287.2 137.054 C 288.26 136.494 289.23 135.884 290.11 135.224 C 290.703 135.631 291.283 136.207 291.85 136.954 C 292.416 137.707 292.77 138.437 292.91 139.144 C 292.17 139.871 291.26 140.541 290.18 141.154 C 289.093 141.774 287.893 142.271 286.58 142.644 C 285.273 143.017 283.916 143.204 282.51 143.204 C 280.516 143.204 278.843 142.814 277.49 142.034 C 276.136 141.254 275.06 140.214 274.26 138.914 C 273.46 137.607 272.886 136.157 272.54 134.564 C 272.186 132.971 272.01 131.354 272.01 129.714 C 272.01 126.527 272.516 123.924 273.53 121.904 C 274.536 119.884 275.883 118.401 277.57 117.454 C 279.263 116.501 281.126 116.024 283.16 116.024 C 285.126 116.024 286.843 116.371 288.31 117.064 C 289.776 117.764 290.913 118.711 291.72 119.904 C 292.526 121.097 292.93 122.444 292.93 123.944 C 292.93 125.124 292.62 125.977 292 126.504 C 291.386 127.031 290.533 127.294 289.44 127.294 C 289 127.294 288.596 127.264 288.23 127.204 C 287.87 127.137 287.506 127.061 287.14 126.974 ZM 308.923 131.774 L 304.523 131.774 C 304.329 131.774 304.123 131.771 303.903 131.764 C 303.683 131.757 303.456 131.751 303.223 131.744 C 302.996 131.737 302.793 131.734 302.613 131.734 C 302.019 131.734 301.406 131.741 300.773 131.754 C 300.146 131.767 299.536 131.774 298.943 131.774 L 298.943 126.674 C 299.536 126.674 300.146 126.681 300.773 126.694 C 301.406 126.701 302.019 126.704 302.613 126.704 C 302.793 126.704 302.996 126.701 303.223 126.694 C 303.456 126.694 303.683 126.691 303.903 126.684 C 304.123 126.677 304.329 126.674 304.523 126.674 L 308.923 126.674 C 309.096 126.674 309.299 126.677 309.533 126.684 C 309.759 126.691 309.983 126.694 310.203 126.694 C 310.429 126.701 310.636 126.704 310.823 126.704 C 311.423 126.704 312.033 126.701 312.653 126.694 C 313.279 126.681 313.889 126.674 314.483 126.674 L 314.483 131.774 C 313.889 131.774 313.279 131.767 312.653 131.754 C 312.033 131.741 311.423 131.734 310.823 131.734 C 310.636 131.734 310.429 131.737 310.203 131.744 C 309.983 131.751 309.759 131.757 309.533 131.764 C 309.299 131.771 309.096 131.774 308.923 131.774 Z M 302.653 134.554 L 302.653 142.634 C 302.146 142.721 301.609 142.781 301.043 142.814 C 300.476 142.847 299.989 142.864 299.583 142.864 C 299.216 142.864 298.739 142.847 298.153 142.814 C 297.573 142.781 297.036 142.721 296.543 142.634 L 296.543 116.614 C 297.036 116.521 297.573 116.461 298.153 116.434 C 298.739 116.401 299.216 116.384 299.583 116.384 C 299.989 116.384 300.476 116.401 301.043 116.434 C 301.609 116.461 302.146 116.521 302.653 116.614 L 302.653 123.884 C 302.653 124.417 302.646 124.891 302.633 125.304 C 302.619 125.717 302.613 126.184 302.613 126.704 L 302.613 131.734 C 302.613 132.247 302.619 132.711 302.633 133.124 C 302.646 133.544 302.653 134.021 302.653 134.554 Z M 310.783 142.634 L 310.783 134.554 C 310.783 134.021 310.789 133.544 310.803 133.124 C 310.816 132.711 310.823 132.247 310.823 131.734 L 310.823 126.704 C 310.823 126.184 310.816 125.717 310.803 125.304 C 310.789 124.891 310.783 124.417 310.783 123.884 L 310.783 116.614 C 311.296 116.521 311.833 116.461 312.393 116.434 C 312.946 116.401 313.426 116.384 313.833 116.384 C 314.206 116.384 314.686 116.401 315.273 116.434 C 315.866 116.461 316.403 116.521 316.883 116.614 L 316.883 142.634 C 316.363 142.721 315.843 142.781 315.323 142.814 C 314.803 142.847 314.333 142.864 313.913 142.864 C 313.479 142.864 312.979 142.847 312.413 142.814 C 311.853 142.781 311.309 142.721 310.783 142.634 ZM 322.506 139.184 L 322.506 116.874 L 322.766 116.614 L 328.506 116.614 L 328.506 121.624 C 328.506 122.157 328.513 122.634 328.526 123.054 C 328.54 123.474 328.546 123.944 328.546 124.464 L 328.546 134.934 C 328.546 135.434 328.54 135.891 328.526 136.304 C 328.513 136.717 328.506 137.177 328.506 137.684 L 328.506 142.744 L 326.006 142.744 C 324.913 142.744 324.056 142.427 323.436 141.794 C 322.816 141.161 322.506 140.291 322.506 139.184 Z M 331.116 127.074 L 336.926 127.074 C 337.053 127.441 337.143 127.864 337.196 128.344 C 337.256 128.831 337.286 129.237 337.286 129.564 C 337.286 129.911 337.256 130.311 337.196 130.764 C 337.143 131.224 337.053 131.651 336.926 132.044 L 331.116 132.044 C 330.796 132.044 330.346 132.037 329.766 132.024 C 329.18 132.011 328.58 132.001 327.966 131.994 C 327.346 131.987 326.833 131.977 326.426 131.964 L 326.426 127.144 C 326.833 127.131 327.346 127.121 327.966 127.114 C 328.58 127.107 329.18 127.101 329.766 127.094 C 330.346 127.081 330.796 127.074 331.116 127.074 Z M 326.426 116.614 L 339.196 116.614 C 339.283 117.067 339.34 117.494 339.366 117.894 C 339.386 118.294 339.396 118.667 339.396 119.014 C 339.396 119.354 339.356 119.774 339.276 120.274 C 339.196 120.781 339.073 121.261 338.906 121.714 L 331.116 121.714 C 330.796 121.714 330.346 121.707 329.766 121.694 C 329.18 121.681 328.58 121.674 327.966 121.674 C 327.346 121.667 326.833 121.657 326.426 121.644 L 326.426 116.614 Z M 331.326 137.644 L 340.146 137.644 C 340.146 139.317 339.883 140.587 339.356 141.454 C 338.83 142.314 337.76 142.744 336.146 142.744 L 326.426 142.744 L 326.426 137.834 C 327.253 137.794 328.04 137.754 328.786 137.714 C 329.54 137.667 330.386 137.644 331.326 137.644 ZM 343.73 142.554 L 345.75 116.654 C 346.396 116.534 347.103 116.457 347.87 116.424 C 348.636 116.384 349.3 116.364 349.86 116.364 C 350.42 116.364 351.043 116.384 351.73 116.424 C 352.416 116.457 353.083 116.534 353.73 116.654 L 355.98 125.964 C 356.026 126.191 356.11 126.584 356.23 127.144 C 356.35 127.704 356.486 128.341 356.64 129.054 C 356.793 129.761 356.936 130.457 357.07 131.144 C 357.203 131.831 357.31 132.417 357.39 132.904 L 357.65 132.904 C 357.73 132.417 357.84 131.831 357.98 131.144 C 358.12 130.457 358.26 129.761 358.4 129.054 C 358.546 128.341 358.683 127.704 358.81 127.144 C 358.936 126.584 359.026 126.191 359.08 125.964 L 361.33 116.654 C 361.976 116.534 362.64 116.457 363.32 116.424 C 364 116.384 364.62 116.364 365.18 116.364 C 365.733 116.364 366.4 116.384 367.18 116.424 C 367.953 116.457 368.656 116.534 369.29 116.654 L 371.31 142.554 C 370.876 142.674 370.38 142.754 369.82 142.794 C 369.253 142.841 368.72 142.864 368.22 142.864 C 367.766 142.864 367.32 142.851 366.88 142.824 C 366.44 142.797 366 142.747 365.56 142.674 L 364.99 132.064 C 364.936 131.157 364.886 130.184 364.84 129.144 C 364.8 128.104 364.763 127.077 364.73 126.064 C 364.696 125.044 364.68 124.121 364.68 123.294 L 364.41 123.294 L 360.66 138.804 C 360.206 138.884 359.673 138.937 359.06 138.964 C 358.453 138.997 357.933 139.014 357.5 139.014 C 357.12 139.014 356.616 138.997 355.99 138.964 C 355.37 138.937 354.833 138.884 354.38 138.804 L 350.62 123.294 L 350.37 123.294 C 350.37 124.121 350.356 125.044 350.33 126.064 C 350.296 127.077 350.256 128.104 350.21 129.144 C 350.17 130.184 350.123 131.157 350.07 132.064 L 349.48 142.674 C 349.046 142.747 348.61 142.797 348.17 142.824 C 347.723 142.851 347.27 142.864 346.81 142.864 C 346.33 142.864 345.806 142.841 345.24 142.794 C 344.673 142.754 344.17 142.674 343.73 142.554 Z" transform="matrix(1, 0, 0, 1, 0, 0)" style="fill: rgb(57, 181, 74); white-space: pre;"/>
  <path d="M 217.207 166.683 C 215.36 166.683 213.974 166.17 213.047 165.143 C 212.114 164.11 211.647 162.573 211.647 160.533 C 211.647 158.493 212.114 156.956 213.047 155.923 C 213.974 154.89 215.36 154.373 217.207 154.373 C 217.847 154.373 218.47 154.453 219.077 154.613 C 219.69 154.766 220.287 154.98 220.867 155.253 L 220.867 156.503 C 220.314 156.203 219.744 155.976 219.157 155.823 C 218.564 155.676 217.964 155.603 217.357 155.603 C 216.344 155.603 215.517 155.776 214.877 156.123 C 214.237 156.47 213.764 157.006 213.457 157.733 C 213.15 158.46 212.997 159.393 212.997 160.533 C 212.997 161.673 213.15 162.606 213.457 163.333 C 213.764 164.06 214.237 164.596 214.877 164.943 C 215.517 165.29 216.344 165.463 217.357 165.463 C 217.964 165.463 218.564 165.39 219.157 165.243 C 219.744 165.103 220.314 164.883 220.867 164.583 L 220.867 165.823 C 220.48 166.003 220.087 166.16 219.687 166.293 C 219.28 166.426 218.87 166.526 218.457 166.593 C 218.044 166.653 217.627 166.683 217.207 166.683 ZM 229.308 166.723 C 228.122 166.723 227.128 166.493 226.328 166.033 C 225.535 165.566 224.935 164.88 224.528 163.973 C 224.128 163.06 223.928 161.92 223.928 160.553 C 223.928 158.513 224.382 156.973 225.288 155.933 C 226.195 154.893 227.535 154.373 229.308 154.373 C 230.508 154.373 231.508 154.603 232.308 155.063 C 233.108 155.53 233.708 156.22 234.108 157.133 C 234.508 158.04 234.708 159.18 234.708 160.553 C 234.708 162.593 234.255 164.13 233.348 165.163 C 232.442 166.203 231.095 166.723 229.308 166.723 Z M 229.308 165.503 C 230.255 165.503 231.028 165.326 231.628 164.973 C 232.228 164.626 232.672 164.086 232.958 163.353 C 233.238 162.626 233.378 161.693 233.378 160.553 C 233.378 159.413 233.238 158.48 232.958 157.753 C 232.672 157.026 232.228 156.486 231.628 156.133 C 231.028 155.78 230.255 155.603 229.308 155.603 C 228.375 155.603 227.608 155.78 227.008 156.133 C 226.408 156.486 225.968 157.026 225.688 157.753 C 225.402 158.48 225.258 159.413 225.258 160.553 C 225.258 161.693 225.402 162.626 225.688 163.353 C 225.968 164.086 226.408 164.626 227.008 164.973 C 227.608 165.326 228.375 165.503 229.308 165.503 ZM 239.615 166.543 L 238.315 166.543 L 238.315 154.533 L 239.795 154.533 L 247.275 165.103 L 246.955 165.603 L 246.955 154.533 L 248.255 154.533 L 248.255 166.543 L 246.795 166.543 L 239.015 155.583 L 239.615 155.023 L 239.615 166.543 ZM 255.706 166.723 C 255.106 166.723 254.596 166.68 254.176 166.593 C 253.756 166.513 253.379 166.393 253.046 166.233 C 252.706 166.08 252.339 165.9 251.946 165.693 L 251.946 164.293 C 252.332 164.62 252.849 164.906 253.496 165.153 C 254.142 165.406 254.899 165.533 255.766 165.533 C 256.672 165.533 257.336 165.34 257.756 164.953 C 258.169 164.56 258.376 164.063 258.376 163.463 C 258.376 162.963 258.236 162.56 257.956 162.253 C 257.682 161.946 257.329 161.693 256.896 161.493 C 256.462 161.293 256.006 161.103 255.526 160.923 C 255.119 160.783 254.716 160.63 254.316 160.463 C 253.909 160.303 253.546 160.1 253.226 159.853 C 252.899 159.606 252.639 159.29 252.446 158.903 C 252.259 158.51 252.166 158.02 252.166 157.433 C 252.166 157.113 252.229 156.773 252.356 156.413 C 252.476 156.053 252.679 155.716 252.966 155.403 C 253.246 155.09 253.622 154.836 254.096 154.643 C 254.569 154.45 255.149 154.353 255.836 154.353 C 256.302 154.353 256.702 154.386 257.036 154.453 C 257.362 154.52 257.676 154.616 257.976 154.743 C 258.276 154.87 258.612 155.023 258.986 155.203 L 258.986 156.533 C 258.672 156.353 258.376 156.19 258.096 156.043 C 257.809 155.89 257.496 155.77 257.156 155.683 C 256.816 155.59 256.399 155.543 255.906 155.543 C 255.319 155.543 254.849 155.626 254.496 155.793 C 254.142 155.966 253.882 156.19 253.716 156.463 C 253.556 156.736 253.476 157.03 253.476 157.343 C 253.476 157.836 253.586 158.226 253.806 158.513 C 254.032 158.8 254.346 159.036 254.746 159.223 C 255.146 159.41 255.609 159.593 256.136 159.773 C 256.556 159.92 256.976 160.08 257.396 160.253 C 257.816 160.426 258.199 160.643 258.546 160.903 C 258.886 161.156 259.162 161.48 259.376 161.873 C 259.582 162.26 259.686 162.743 259.686 163.323 C 259.686 163.863 259.566 164.393 259.326 164.913 C 259.086 165.433 258.679 165.866 258.106 166.213 C 257.526 166.553 256.726 166.723 255.706 166.723 ZM 267.991 166.723 C 266.505 166.723 265.348 166.286 264.521 165.413 C 263.701 164.533 263.291 163.276 263.291 161.643 L 263.291 154.533 L 264.591 154.533 L 264.591 161.723 C 264.591 163.003 264.878 163.953 265.451 164.573 C 266.025 165.193 266.871 165.503 267.991 165.503 C 269.105 165.503 269.955 165.193 270.541 164.573 C 271.135 163.953 271.431 163.003 271.431 161.723 L 271.431 154.533 L 272.691 154.533 L 272.691 161.643 C 272.691 162.736 272.505 163.663 272.131 164.423 C 271.758 165.176 271.225 165.746 270.531 166.133 C 269.831 166.526 268.985 166.723 267.991 166.723 ZM 284.172 166.543 L 276.742 166.543 L 276.742 154.533 L 278.042 154.533 L 278.042 165.283 L 284.172 165.283 L 284.172 166.543 ZM 290.083 166.543 L 288.793 166.543 L 288.793 155.763 L 284.543 155.763 L 284.543 154.533 L 294.313 154.533 L 294.313 155.763 L 290.083 155.763 L 290.083 166.543 ZM 298.502 166.543 L 297.202 166.543 L 297.202 154.533 L 298.502 154.533 L 298.502 166.543 ZM 303.857 166.543 L 302.557 166.543 L 302.557 154.533 L 304.037 154.533 L 311.517 165.103 L 311.197 165.603 L 311.197 154.533 L 312.497 154.533 L 312.497 166.543 L 311.037 166.543 L 303.257 155.583 L 303.857 155.023 L 303.857 166.543 ZM 321.657 166.723 C 320.437 166.723 319.411 166.493 318.577 166.033 C 317.751 165.566 317.131 164.876 316.717 163.963 C 316.304 163.043 316.097 161.9 316.097 160.533 C 316.097 159.166 316.304 158.026 316.717 157.113 C 317.131 156.2 317.751 155.516 318.577 155.063 C 319.411 154.603 320.437 154.373 321.657 154.373 C 322.317 154.373 322.967 154.44 323.607 154.573 C 324.241 154.706 324.851 154.91 325.437 155.183 L 325.437 156.533 C 324.877 156.28 324.291 156.06 323.677 155.873 C 323.064 155.693 322.441 155.603 321.807 155.603 C 320.794 155.603 319.961 155.78 319.307 156.133 C 318.654 156.486 318.171 157.026 317.857 157.753 C 317.551 158.48 317.397 159.406 317.397 160.533 C 317.397 161.66 317.551 162.59 317.857 163.323 C 318.171 164.056 318.654 164.6 319.307 164.953 C 319.961 165.306 320.794 165.483 321.807 165.483 C 322.287 165.483 322.754 165.446 323.207 165.373 C 323.661 165.3 324.111 165.193 324.557 165.053 L 324.557 161.633 L 321.657 161.633 L 321.657 160.373 L 325.857 160.373 L 325.857 165.783 C 325.197 166.096 324.517 166.333 323.817 166.493 C 323.124 166.646 322.404 166.723 321.657 166.723 Z" transform="matrix(1, 0, 0, 1, 0, 0)" style="fill: rgb(57, 181, 74); white-space: pre;"/>
</svg>