<?xml version="1.0" encoding="utf-8"?>
<svg viewBox="120.699 103.102 228.535 89.997" xmlns="http://www.w3.org/2000/svg">
  <g id="SvgjsG2487" featurekey="ZxbabI-0" transform="matrix(0.001725, 0, 0, 0.001725, 110.891739, 103.131805)" fill="#ff5722">
    <g xmlns="http://www.w3.org/2000/svg">
      <path class="fil0" d="M35397.32 5555.91c-1006.25,-755.74 -1118.55,-2244.81 -223.31,-3140.01 809.1,-809.1 2137.14,-809.13 2946.23,0 809.13,809.09 809.1,2137.13 0,2946.23 -600.94,600.97 -1513.35,776.3 -2291.99,443.05l-6685.54 11579.72 3511.66 6082.38 5376.32 0c56.86,-475.36 273.75,-901.56 595.32,-1223.11 809.11,-809.11 2137.12,-809.11 2946.23,0 809.13,809.09 809.1,2137.13 0,2946.23 -809.1,809.1 -2137.14,809.13 -2946.23,0 -321.56,-321.56 -538.46,-747.76 -595.32,-1223.12l-5367.51 0 -955.12 1654.33c-162.92,283.52 -594.57,35.49 -431.64,-248.04l951.85 -1648.66 -3502.28 -6066.14 -7006.5 0c-1167.67,2022.46 -2335.18,4043.67 -3502.85,6066.14 1167.67,2022.46 2335.18,4043.67 3502.85,6066.13l1984.1 0c328.84,0 328.84,500 0,500l-1981.59 0 -8171.26 14153.04c1006.25,755.74 1118.55,2244.84 223.31,3140.03 -809.11,809.11 -2137.12,809.11 -2946.23,0 -809.13,-809.09 -809.1,-2137.13 0,-2946.23 600.96,-600.96 1513.32,-776.29 2291.99,-443.07l8169.86 -14150.62c-1175.78,-2036.5 -2350.97,-4072.96 -3526.74,-6109.46l-7925.86 -1.27c-51.2,487.35 -270.4,924.68 -598.68,1252.94 -809.1,809.1 -2137.14,809.13 -2946.23,0 -809.11,-809.11 -809.11,-2137.12 0,-2946.23 809.09,-809.13 2137.13,-809.1 2946.23,0 315.57,315.57 530.34,731.91 591.98,1196.59l7978.97 -2.03c1163.76,-2015.71 2326.94,-4031.38 3490.71,-6047.08l-5664.08 -9810.48c-783.83,349.25 -1711.21,178.03 -2320.04,-430.8 -809.12,-809.07 -809.12,-2137.15 0,-2946.22 809.11,-809.11 2137.12,-809.11 2946.23,0 886.07,886.02 786.85,2358.19 -198.93,3121.4l5679.52 9837.22 6943.35 0c2234.48,-3870.25 4476.92,-7732.94 6711.22,-11602.86zm-14964.17 16278.6c98.53,-170.12 357.51,-20.11 258.98,150l-1023.35 1762.56 1003.49 1622.33c100.84,168.57 -145.79,332.1 -246.64,163.52l-1104.42 -1783.87 1111.94 -1914.54zm6242.92 -13509.71c809.13,809.09 809.1,2137.13 0,2946.23 -322.46,322.47 -750.16,539.69 -1227.13,595.8l0 3971.26c0,328.84 -500,328.84 -500,0l0 -3972.23c-473.74,-57.6 -898.45,-274.18 -1219.1,-594.83 -809.1,-809.1 -809.13,-2137.14 0,-2946.23 809.1,-809.1 2137.14,-809.13 2946.23,0zm-353.52 353.52c-614.88,-614.9 -1624.3,-614.89 -2239.19,0 -614.9,614.88 -614.89,1624.3 0,2239.19 614.89,614.89 1624.31,614.9 2239.19,0 614.89,-614.89 614.9,-1624.31 0,-2239.19zm3088.8 11885.79c97.75,170.12 -161.24,318.93 -258.98,148.82l-1100.75 -1906.56 -2202.93 0c-197.31,0 -197.31,-300 0,-300l2374.62 0 1188.04 2057.74zm14296.48 -9097.12c809.13,809.09 809.1,2137.13 0,2946.23 -822.51,822.51 -2175.19,806.64 -2979.08,-33.62l-8146.62 5471.25c-271.97,182.17 -549.32,-231.89 -277.34,-414.06l8124.55 -5456.43c-469.16,-812.47 -333.03,-1848.11 332.26,-2513.37 809.11,-809.11 2137.12,-809.11 2946.23,0zm-353.52 353.52c-614.89,-614.89 -1624.3,-614.89 -2239.19,0 -614.9,614.88 -614.89,1624.3 0,2239.19 614.88,614.9 1624.3,614.89 2239.19,0 614.89,-614.89 614.9,-1624.31 0,-2239.19zm-28797.72 18164.67l3346.5 -2240.93c271.97,-182.17 549.32,231.89 277.34,414.06l-3345.63 2240.34c408.87,800.21 254.16,1782.29 -383.23,2419.68 -809.1,809.1 -2137.14,809.13 -2946.23,0 -809.11,-809.11 -809.11,-2137.12 0,-2946.23 847.61,-847.65 2267.2,-795.73 3051.25,113.08zm-458.54 240.44c-612.02,-612.02 -1627.23,-611.98 -2239.19,0 -614.89,614.89 -614.89,1624.3 0,2239.19 614.88,614.9 1624.3,614.89 2239.19,0 471.49,-471.49 581.44,-1174.96 329.87,-1754.64 -76.51,-176.29 -186.47,-341.16 -329.87,-484.55zm-2916.71 14765.78c-614.89,614.89 -614.9,1624.31 0,2239.19 614.89,614.89 1624.3,614.89 2239.19,0 664.72,-664.7 602.07,-1775.77 -133.4,-2357.98 -617.74,-488.91 -1540.11,-446.89 -2105.79,118.79zm-2296.47 -22397.71c-614.89,-614.89 -1624.31,-614.9 -2239.19,0 -614.89,614.89 -614.89,1624.3 0,2239.19 614.88,614.9 1624.3,614.89 2239.19,0 614.9,-614.88 614.89,-1624.3 0,-2239.19zm7023.77 -18040.02c-614.89,-614.89 -1624.3,-614.89 -2239.19,0 -614.9,614.87 -614.9,1624.31 0,2239.18 474.89,474.89 1185.1,583.01 1767.14,324.38 999.83,-444.24 1258.13,-1777.51 472.05,-2563.56zm25310.08 18044.02c-614.89,-614.89 -1624.3,-614.89 -2239.19,0 -614.9,614.88 -614.89,1624.3 0,2239.19 614.88,614.9 1624.3,614.89 2239.19,0 614.89,-614.89 614.9,-1624.31 0,-2239.19zm-3452 -19828.27c-614.88,-614.9 -1624.3,-614.89 -2239.19,0 -657.56,657.54 -575.44,1771.08 139.43,2361.81 119.85,99.03 251.45,167.74 389.68,225.93 576.58,242.71 1242.88,118.66 1710.08,-348.55 614.89,-614.89 614.9,-1624.31 0,-2239.19zm5315.54 38507.52l1105.89 1467.63c197.82,262.06 -200.64,562.82 -398.44,300.78l-1130.29 -1500.01c-241.42,-265 -745.89,-21.15 -1072,74.26 -1322.3,474.61 -4099.76,1932.43 -6149.32,3997.36 -312.43,314.78 -431.93,540.92 -327.53,700.62l1089.82 1477.09c197.57,260.44 -198.93,561.2 -396.48,300.78l-1153.47 -1530.44c-278.51,-369.54 102.06,-898.55 349.01,-1198.01 -877.01,-1117.9 -1969.18,-1511.7 -3154.53,-1939.07 -2674.55,-964.32 -4176.19,-2211.41 -5801,-4521.35 -952.49,-1354.12 -1666.2,-3769.06 -1649.94,-5458.2 16.87,-1748.7 1549.7,-1670.91 2365.38,-727.64 357.31,413.19 617.68,1050.6 785.88,1979.54 57.14,315.59 151.55,604.16 258.29,863.86 206.2,501.71 242.89,498.16 113.26,-34.47 -94.61,-388.74 -157.48,-791.25 -231.75,-1183.21 -493.09,-2602.54 -1318.06,-5401.71 -2156.42,-7926.25 -901.73,-2715.22 2064.29,-3872.23 3065,-809.28 303.96,930.28 732.18,2014.8 1080.88,2928.83 889.62,-260.36 1746.3,-29.88 2434.04,577.32 954.24,-536.06 2284.42,146.12 2907.81,926.62 3162.29,-781.52 3996.77,4118.85 4478.89,5699.38 561.26,1993.68 1144.85,4066.4 2132.07,5339.23 501.32,-151.64 1087.68,-292.79 1454.95,194.63zm-7742.02 3717.25c1401.61,-1408 3961.2,-3020.07 5793.03,-3738.69 -985.64,-1353.99 -1562.77,-3403.63 -2118.49,-5377.66 -847.29,-3009.67 -1642.59,-5833.88 -3700.29,-5401.26 300.95,494.05 545.16,1049.16 685.5,1610.35 79.65,318.56 -404.73,439.67 -484.38,121.1 -148.33,-593.19 -450.25,-1252.42 -808.63,-1746.68 -457.17,-630.45 -1439.82,-1248.39 -2236.54,-964.1 561.83,709.13 963.1,1724.68 1188.99,2592.41 82.2,317.31 -400.23,442.26 -482.42,125 -209.02,-802.92 -658.89,-1972.65 -1241.25,-2573.55 -564.42,-582.43 -1288.2,-850.56 -2083.9,-632.24 397.14,1053.25 807.46,2147.3 1097.29,3185.38 87.35,316.02 -393.13,448.79 -480.46,132.82 -612.05,-2192.2 -1646.98,-4411.25 -2349.67,-6561.84 -781.27,-2391.24 -2819.42,-1614.15 -2117.74,498.72 846.75,2549.75 1675.85,5361.51 2174,7990.71 220.89,1165.74 454.87,2400.52 816.06,3246.61 128.46,301.88 -330.54,497.17 -458.98,195.32 -46.78,-109.57 -91.41,-224.67 -134.13,-344.47 -152.73,-428.24 -118.53,-276.15 -411.77,-586.66 -159.14,-168.53 -312.75,-377.28 -449.54,-619.47 -212.67,-376.56 -387.8,-837.97 -481.92,-1357.81 -151.35,-835.86 -373.92,-1395.87 -672.6,-1741.26 -525.39,-607.59 -1478.74,-803.83 -1490.38,405.36 -15.23,1582.06 668.32,3899.39 1560.1,5167.2 1563.4,2222.65 2987.8,3412 5560.76,4339.69 1235.08,445.3 2374.75,856.3 3327.36,2035.02z" style="fill-rule: nonzero; stroke-linecap: square; fill: rgb(57, 181, 74); stroke: rgb(57, 181, 74); stroke-width: 579.71px;"/>
    </g>
  </g>
  <line style="fill-rule: nonzero; paint-order: stroke; fill: rgb(57, 181, 74); stroke-width: 1.6px; stroke: rgb(255, 255, 255);" x1="198.958" y1="103.102" x2="198.238" y2="193.099"/>
  <path d="M 216.521 134.12 C 216.521 137.12 217.734 138.62 220.161 138.62 C 220.714 138.62 221.231 138.547 221.711 138.4 C 222.191 138.26 222.598 138.093 222.931 137.9 L 222.931 129.33 C 222.664 129.283 222.351 129.243 221.991 129.21 C 221.631 129.17 221.211 129.15 220.731 129.15 C 219.318 129.15 218.264 129.62 217.571 130.56 C 216.871 131.493 216.521 132.68 216.521 134.12 Z M 228.291 125.91 L 228.291 141.82 C 228.291 144.92 227.508 147.22 225.941 148.72 C 224.368 150.22 221.938 150.97 218.651 150.97 C 217.498 150.97 216.344 150.867 215.191 150.66 C 214.038 150.46 212.971 150.19 211.991 149.85 L 212.921 145.35 C 213.761 145.69 214.644 145.953 215.571 146.14 C 216.491 146.333 217.541 146.43 218.721 146.43 C 220.254 146.43 221.341 146.093 221.981 145.42 C 222.614 144.753 222.931 143.89 222.931 142.83 L 222.931 142.15 C 222.358 142.41 221.764 142.607 221.151 142.74 C 220.538 142.873 219.871 142.94 219.151 142.94 C 216.538 142.94 214.534 142.167 213.141 140.62 C 211.748 139.073 211.051 136.907 211.051 134.12 C 211.051 132.727 211.268 131.46 211.701 130.32 C 212.134 129.18 212.764 128.203 213.591 127.39 C 214.418 126.57 215.431 125.94 216.631 125.5 C 217.831 125.053 219.188 124.83 220.701 124.83 C 221.348 124.83 222.014 124.86 222.701 124.92 C 223.381 124.98 224.058 125.06 224.731 125.16 C 225.404 125.253 226.048 125.367 226.661 125.5 C 227.268 125.633 227.811 125.77 228.291 125.91 ZM 251.042 134.7 C 251.042 136.187 250.825 137.547 250.392 138.78 C 249.965 140.02 249.342 141.077 248.522 141.95 C 247.709 142.823 246.732 143.5 245.592 143.98 C 244.452 144.46 243.172 144.7 241.752 144.7 C 240.365 144.7 239.102 144.46 237.962 143.98 C 236.822 143.5 235.842 142.823 235.022 141.95 C 234.209 141.077 233.572 140.02 233.112 138.78 C 232.659 137.547 232.432 136.187 232.432 134.7 C 232.432 133.207 232.665 131.85 233.132 130.63 C 233.599 129.403 234.249 128.36 235.082 127.5 C 235.909 126.633 236.892 125.96 238.032 125.48 C 239.172 125 240.412 124.76 241.752 124.76 C 243.125 124.76 244.382 125 245.522 125.48 C 246.662 125.96 247.639 126.633 248.452 127.5 C 249.265 128.36 249.902 129.403 250.362 130.63 C 250.815 131.85 251.042 133.207 251.042 134.7 Z M 245.572 134.7 C 245.572 133.04 245.242 131.737 244.582 130.79 C 243.922 129.843 242.979 129.37 241.752 129.37 C 240.532 129.37 239.585 129.843 238.912 130.79 C 238.239 131.737 237.902 133.04 237.902 134.7 C 237.902 136.353 238.239 137.667 238.912 138.64 C 239.585 139.613 240.532 140.1 241.752 140.1 C 242.979 140.1 243.922 139.613 244.582 138.64 C 245.242 137.667 245.572 136.353 245.572 134.7 ZM 266.921 144.7 C 262.861 144.7 259.771 143.573 257.651 141.32 C 255.524 139.067 254.461 135.863 254.461 131.71 C 254.461 129.643 254.784 127.8 255.431 126.18 C 256.078 124.56 256.968 123.193 258.101 122.08 C 259.228 120.96 260.571 120.113 262.131 119.54 C 263.691 118.967 265.381 118.68 267.201 118.68 C 268.261 118.68 269.221 118.757 270.081 118.91 C 270.948 119.063 271.704 119.243 272.351 119.45 C 272.998 119.657 273.538 119.867 273.971 120.08 C 274.404 120.293 274.718 120.46 274.911 120.58 L 273.291 125.12 C 272.524 124.713 271.631 124.367 270.611 124.08 C 269.591 123.787 268.431 123.64 267.131 123.64 C 266.271 123.64 265.424 123.787 264.591 124.08 C 263.764 124.367 263.034 124.827 262.401 125.46 C 261.761 126.1 261.251 126.923 260.871 127.93 C 260.484 128.937 260.291 130.16 260.291 131.6 C 260.291 132.753 260.418 133.827 260.671 134.82 C 260.924 135.82 261.331 136.68 261.891 137.4 C 262.458 138.12 263.198 138.69 264.111 139.11 C 265.024 139.53 266.128 139.74 267.421 139.74 C 268.234 139.74 268.968 139.69 269.621 139.59 C 270.268 139.497 270.841 139.383 271.341 139.25 C 271.848 139.117 272.294 138.967 272.681 138.8 C 273.061 138.633 273.408 138.477 273.721 138.33 L 275.271 142.83 C 274.478 143.31 273.361 143.743 271.921 144.13 C 270.481 144.51 268.814 144.7 266.921 144.7 ZM 283.866 144.2 L 278.506 144.2 L 278.506 117.13 L 283.866 116.26 L 283.866 125.34 C 284.226 125.22 284.689 125.103 285.256 124.99 C 285.823 124.883 286.369 124.83 286.896 124.83 C 288.429 124.83 289.706 125.04 290.726 125.46 C 291.746 125.88 292.563 126.473 293.176 127.24 C 293.789 128.013 294.223 128.927 294.476 129.98 C 294.723 131.033 294.846 132.21 294.846 133.51 L 294.846 144.2 L 289.486 144.2 L 289.486 134.16 C 289.486 132.427 289.263 131.2 288.816 130.48 C 288.376 129.76 287.556 129.4 286.356 129.4 C 285.876 129.4 285.426 129.443 285.006 129.53 C 284.586 129.617 284.206 129.707 283.866 129.8 L 283.866 144.2 ZM 298.807 134.88 C 298.807 133.2 299.064 131.73 299.577 130.47 C 300.097 129.21 300.777 128.16 301.617 127.32 C 302.457 126.48 303.424 125.843 304.517 125.41 C 305.604 124.977 306.724 124.76 307.877 124.76 C 310.564 124.76 312.687 125.583 314.247 127.23 C 315.807 128.87 316.587 131.287 316.587 134.48 C 316.587 134.793 316.577 135.137 316.557 135.51 C 316.53 135.877 316.507 136.207 316.487 136.5 L 304.317 136.5 C 304.437 137.6 304.954 138.473 305.867 139.12 C 306.774 139.773 307.997 140.1 309.537 140.1 C 310.517 140.1 311.484 140.01 312.437 139.83 C 313.384 139.65 314.157 139.427 314.757 139.16 L 315.477 143.52 C 315.19 143.66 314.807 143.803 314.327 143.95 C 313.847 144.09 313.31 144.217 312.717 144.33 C 312.13 144.437 311.5 144.527 310.827 144.6 C 310.16 144.667 309.49 144.7 308.817 144.7 C 307.11 144.7 305.627 144.45 304.367 143.95 C 303.107 143.443 302.064 142.753 301.237 141.88 C 300.41 141 299.797 139.96 299.397 138.76 C 299.004 137.56 298.807 136.267 298.807 134.88 Z M 304.317 132.82 L 311.407 132.82 C 311.38 132.367 311.304 131.923 311.177 131.49 C 311.044 131.057 310.837 130.673 310.557 130.34 C 310.284 130.007 309.937 129.73 309.517 129.51 C 309.097 129.297 308.574 129.19 307.947 129.19 C 307.347 129.19 306.834 129.29 306.407 129.49 C 305.974 129.697 305.614 129.967 305.327 130.3 C 305.034 130.64 304.81 131.03 304.657 131.47 C 304.504 131.917 304.39 132.367 304.317 132.82 ZM 331.128 144.2 L 331.128 134.16 C 331.128 132.427 330.908 131.2 330.468 130.48 C 330.021 129.76 329.258 129.4 328.178 129.4 C 327.845 129.4 327.498 129.42 327.138 129.46 C 326.778 129.493 326.428 129.533 326.088 129.58 L 326.088 144.2 L 320.728 144.2 L 320.728 125.91 C 321.181 125.79 321.715 125.663 322.328 125.53 C 322.941 125.403 323.591 125.283 324.278 125.17 C 324.958 125.063 325.658 124.98 326.378 124.92 C 327.098 124.86 327.808 124.83 328.508 124.83 C 329.875 124.83 330.985 125.003 331.838 125.35 C 332.685 125.703 333.385 126.12 333.938 126.6 C 334.705 126.047 335.588 125.613 336.588 125.3 C 337.581 124.987 338.498 124.83 339.338 124.83 C 340.851 124.83 342.095 125.04 343.068 125.46 C 344.041 125.88 344.815 126.473 345.388 127.24 C 345.961 128.013 346.358 128.927 346.578 129.98 C 346.791 131.033 346.898 132.21 346.898 133.51 L 346.898 144.2 L 341.538 144.2 L 341.538 134.16 C 341.538 132.427 341.315 131.2 340.868 130.48 C 340.428 129.76 339.668 129.4 338.588 129.4 C 338.295 129.4 337.891 129.473 337.378 129.62 C 336.865 129.767 336.438 129.947 336.098 130.16 C 336.265 130.713 336.375 131.297 336.428 131.91 C 336.475 132.517 336.498 133.17 336.498 133.87 L 336.498 144.2 L 331.128 144.2 Z" transform="matrix(1, 0, 0, 1, 0, 0)" style="fill: rgb(57, 181, 74); white-space: pre;"/>
  <path d="M 199.876 162.75 C 198.043 162.75 196.666 162.24 195.746 161.22 C 194.826 160.2 194.366 158.68 194.366 156.66 C 194.366 154.633 194.826 153.11 195.746 152.09 C 196.666 151.07 198.043 150.56 199.876 150.56 C 200.503 150.56 201.119 150.637 201.726 150.79 C 202.333 150.943 202.923 151.157 203.496 151.43 L 203.496 152.66 C 202.949 152.367 202.386 152.143 201.806 151.99 C 201.219 151.843 200.623 151.77 200.016 151.77 C 199.016 151.77 198.199 151.943 197.566 152.29 C 196.933 152.63 196.463 153.16 196.156 153.88 C 195.856 154.6 195.706 155.527 195.706 156.66 C 195.706 157.787 195.856 158.71 196.156 159.43 C 196.463 160.15 196.933 160.68 197.566 161.02 C 198.199 161.367 199.016 161.54 200.016 161.54 C 200.623 161.54 201.219 161.47 201.806 161.33 C 202.386 161.183 202.949 160.963 203.496 160.67 L 203.496 161.9 C 203.116 162.073 202.726 162.227 202.326 162.36 C 201.926 162.493 201.523 162.59 201.116 162.65 C 200.703 162.717 200.289 162.75 199.876 162.75 ZM 211.874 162.79 C 210.701 162.79 209.718 162.56 208.924 162.1 C 208.131 161.647 207.538 160.967 207.144 160.06 C 206.744 159.16 206.544 158.03 206.544 156.67 C 206.544 154.65 206.994 153.127 207.894 152.1 C 208.788 151.073 210.114 150.56 211.874 150.56 C 213.061 150.56 214.051 150.787 214.844 151.24 C 215.631 151.7 216.224 152.383 216.624 153.29 C 217.024 154.19 217.224 155.317 217.224 156.67 C 217.224 158.69 216.774 160.217 215.874 161.25 C 214.981 162.277 213.648 162.79 211.874 162.79 Z M 211.874 161.58 C 212.814 161.58 213.581 161.407 214.174 161.06 C 214.768 160.713 215.204 160.177 215.484 159.45 C 215.764 158.73 215.904 157.803 215.904 156.67 C 215.904 155.543 215.764 154.62 215.484 153.9 C 215.204 153.18 214.768 152.647 214.174 152.3 C 213.581 151.947 212.814 151.77 211.874 151.77 C 210.948 151.77 210.188 151.947 209.594 152.3 C 209.001 152.647 208.564 153.18 208.284 153.9 C 208.004 154.62 207.864 155.543 207.864 156.67 C 207.864 157.803 208.004 158.73 208.284 159.45 C 208.564 160.177 209.001 160.713 209.594 161.06 C 210.188 161.407 210.948 161.58 211.874 161.58 ZM 222.092 162.61 L 220.812 162.61 L 220.812 150.72 L 222.272 150.72 L 229.682 161.18 L 229.362 161.68 L 229.362 150.72 L 230.652 150.72 L 230.652 162.61 L 229.202 162.61 L 221.502 151.75 L 222.092 151.2 L 222.092 162.61 ZM 238.053 162.79 C 237.453 162.79 236.946 162.747 236.533 162.66 C 236.12 162.58 235.746 162.463 235.413 162.31 C 235.08 162.157 234.716 161.977 234.323 161.77 L 234.323 160.38 C 234.703 160.7 235.213 160.987 235.853 161.24 C 236.493 161.487 237.243 161.61 238.103 161.61 C 239.003 161.61 239.66 161.417 240.073 161.03 C 240.48 160.643 240.683 160.153 240.683 159.56 C 240.683 159.06 240.546 158.66 240.273 158.36 C 240 158.053 239.65 157.803 239.223 157.61 C 238.796 157.41 238.346 157.223 237.873 157.05 C 237.466 156.903 237.063 156.75 236.663 156.59 C 236.27 156.43 235.91 156.23 235.583 155.99 C 235.263 155.743 235.01 155.427 234.823 155.04 C 234.63 154.653 234.533 154.17 234.533 153.59 C 234.533 153.27 234.596 152.93 234.723 152.57 C 234.85 152.217 235.053 151.883 235.333 151.57 C 235.613 151.263 235.986 151.017 236.453 150.83 C 236.92 150.637 237.493 150.54 238.173 150.54 C 238.64 150.54 239.036 150.573 239.363 150.64 C 239.69 150.707 240 150.8 240.293 150.92 C 240.593 151.047 240.926 151.2 241.293 151.38 L 241.293 152.7 C 240.986 152.52 240.693 152.357 240.413 152.21 C 240.133 152.057 239.823 151.937 239.483 151.85 C 239.143 151.763 238.73 151.72 238.243 151.72 C 237.663 151.72 237.196 151.803 236.843 151.97 C 236.496 152.137 236.243 152.357 236.083 152.63 C 235.916 152.903 235.833 153.193 235.833 153.5 C 235.833 153.987 235.943 154.373 236.163 154.66 C 236.383 154.947 236.693 155.18 237.093 155.36 C 237.493 155.547 237.953 155.73 238.473 155.91 C 238.893 156.05 239.31 156.207 239.723 156.38 C 240.143 156.553 240.52 156.767 240.853 157.02 C 241.193 157.273 241.466 157.593 241.673 157.98 C 241.886 158.367 241.993 158.847 241.993 159.42 C 241.993 159.953 241.873 160.48 241.633 161 C 241.393 161.513 240.99 161.94 240.423 162.28 C 239.85 162.62 239.06 162.79 238.053 162.79 ZM 250.227 162.79 C 248.753 162.79 247.61 162.357 246.797 161.49 C 245.983 160.623 245.577 159.38 245.577 157.76 L 245.577 150.72 L 246.857 150.72 L 246.857 157.83 C 246.857 159.103 247.14 160.047 247.707 160.66 C 248.28 161.273 249.12 161.58 250.227 161.58 C 251.333 161.58 252.177 161.273 252.757 160.66 C 253.337 160.047 253.627 159.103 253.627 157.83 L 253.627 150.72 L 254.877 150.72 L 254.877 157.76 C 254.877 158.84 254.693 159.757 254.327 160.51 C 253.96 161.257 253.43 161.823 252.737 162.21 C 252.05 162.597 251.213 162.79 250.227 162.79 ZM 266.273 162.61 L 258.913 162.61 L 258.913 150.72 L 260.193 150.72 L 260.193 161.36 L 266.273 161.36 L 266.273 162.61 ZM 272.14 162.61 L 270.85 162.61 L 270.85 151.93 L 266.65 151.93 L 266.65 150.72 L 276.33 150.72 L 276.33 151.93 L 272.14 151.93 L 272.14 162.61 ZM 280.483 162.61 L 279.203 162.61 L 279.203 150.72 L 280.483 150.72 L 280.483 162.61 ZM 285.797 162.61 L 284.517 162.61 L 284.517 150.72 L 285.977 150.72 L 293.387 161.18 L 293.067 161.68 L 293.067 150.72 L 294.357 150.72 L 294.357 162.61 L 292.907 162.61 L 285.207 151.75 L 285.797 151.2 L 285.797 162.61 ZM 303.448 162.79 C 302.235 162.79 301.218 162.56 300.398 162.1 C 299.578 161.647 298.962 160.963 298.548 160.05 C 298.142 159.143 297.938 158.013 297.938 156.66 C 297.938 155.3 298.142 154.17 298.548 153.27 C 298.962 152.363 299.578 151.687 300.398 151.24 C 301.218 150.787 302.235 150.56 303.448 150.56 C 304.102 150.56 304.742 150.623 305.368 150.75 C 306.002 150.883 306.608 151.087 307.188 151.36 L 307.188 152.7 C 306.635 152.447 306.055 152.23 305.448 152.05 C 304.842 151.863 304.222 151.77 303.588 151.77 C 302.588 151.77 301.765 151.947 301.118 152.3 C 300.472 152.647 299.995 153.18 299.688 153.9 C 299.375 154.62 299.218 155.54 299.218 156.66 C 299.218 157.773 299.375 158.693 299.688 159.42 C 299.995 160.147 300.472 160.683 301.118 161.03 C 301.765 161.383 302.588 161.56 303.588 161.56 C 304.062 161.56 304.525 161.523 304.978 161.45 C 305.432 161.377 305.878 161.27 306.318 161.13 L 306.318 157.74 L 303.448 157.74 L 303.448 156.49 L 307.598 156.49 L 307.598 161.86 C 306.945 162.167 306.275 162.4 305.588 162.56 C 304.895 162.713 304.182 162.79 303.448 162.79 Z" transform="matrix(1.1872470378875732, 0, 0, 0.8413260579109192, -18.683677673339844, 29.491151809692383)" style="fill: rgb(57, 181, 74); white-space: pre;"/>
</svg>